<?xml version="1.0" encoding="UTF-8"?>
<svg version="1.1" xmlns="http://www.w3.org/2000/svg" width="370" height="370">
<path d="M0 0 C31.02219288 27.0465501 51.22986925 62.35650071 60.17089844 102.44384766 C60.41646484 103.46357666 60.41646484 103.46357666 60.66699219 104.50390625 C71.23994019 149.55908241 59.90751438 200.5034984 35.89746094 239.28369141 C8.28535216 282.26633756 -34.05721327 311.34279109 -83.82910156 322.44384766 C-84.84883057 322.68941406 -84.84883057 322.68941406 -85.88916016 322.93994141 C-130.94433631 333.51288941 -181.88875231 322.1804636 -220.66894531 298.17041016 C-263.65159147 270.55830137 -292.728045 228.21573595 -303.82910156 178.44384766 C-303.9928125 177.76402832 -304.15652344 177.08420898 -304.32519531 176.38378906 C-314.89814332 131.32861291 -303.5657175 80.38419691 -279.55566406 41.60400391 C-251.94355528 -1.37864225 -209.60098986 -30.45509578 -159.82910156 -41.55615234 C-159.14928223 -41.71986328 -158.46946289 -41.88357422 -157.76904297 -42.05224609 C-102.60474242 -54.99746862 -42.29016259 -35.97937752 0 0 Z " fill="#FDFDFD" transform="translate(306.8291015625,44.55615234375)"/>
<path d="M0 0 C25.08 0 50.16 0 76 0 C80 10 80 10 80 12 C81.98 12 83.96 12 86 12 C87.64800856 15.66447432 88.33580973 18.81203466 88.625 22.8125 C88.73714844 24.27623047 88.73714844 24.27623047 88.8515625 25.76953125 C88.90054688 26.50558594 88.94953125 27.24164063 89 28 C87.02 28.33 85.04 28.66 83 29 C82.01 38.9 81.02 48.8 80 59 C80.99 59 81.98 59 83 59 C83.39424067 69.0736262 82.18101951 78.94789723 81.0625 88.9375 C80.69688386 92.25886105 80.33444331 95.58056367 79.97265625 98.90234375 C79.88601715 99.69289154 79.79937805 100.48343933 79.71011353 101.29794312 C79.03416763 107.52388094 78.46720905 113.75468643 78 120 C76.35 120.33 74.7 120.66 73 121 C72.98541748 121.62044189 72.97083496 122.24088379 72.95581055 122.88012695 C72.88133412 125.69154633 72.78467436 128.50177749 72.6875 131.3125 C72.66494141 132.28896484 72.64238281 133.26542969 72.61914062 134.27148438 C72.58369141 135.20927734 72.54824219 136.14707031 72.51171875 137.11328125 C72.48553467 137.97735596 72.45935059 138.84143066 72.43237305 139.73168945 C71.90984986 142.47294463 71.189142 143.31508963 69 145 C52.77361681 152.51221444 28.43229084 152.57609222 11.4375 147.1875 C8.07971813 145.74845063 6.26615919 144.50917411 4.5625 141.25 C3.37578134 134.39340327 2.85521504 127.94967812 3 121 C1.68 121 0.36 121 -1 121 C-2.68539434 111.0044547 -3.83390707 100.98693312 -4.85986328 90.90600586 C-5.12568503 88.30579922 -5.40048075 85.70664001 -5.67578125 83.10742188 C-6.5134125 75.0412468 -7.25093274 67.12185642 -7 59 C-6.01 59 -5.02 59 -4 59 C-4.99 49.1 -5.98 39.2 -7 29 C-8.98 28.67 -10.96 28.34 -13 28 C-13.37851209 22.06997733 -12.10575375 17.52760359 -10 12 C-8.02 12 -6.04 12 -4 12 C-3.79503906 11.38511719 -3.59007812 10.77023438 -3.37890625 10.13671875 C-2.25260417 6.7578125 -1.12630208 3.37890625 0 0 Z " fill="#221B17" transform="translate(145,81)"/>
<path d="M0 0 C28.38 0 56.76 0 86 0 C85.67 1.65 85.34 3.3 85 5 C84.82186975 7.66912624 84.67758957 10.32834064 84.5625 13 C84.2162069 19.95393972 83.71317672 26.8803632 83.0625 33.8125 C82.98781494 34.63427734 82.91312988 35.45605469 82.83618164 36.30273438 C82.16202402 43.27478 81.07033416 50.04282794 80 57 C55.58 57 31.16 57 6 57 C2.49727695 33.648513 2.49727695 33.648513 1.8125 25.9375 C1.73136963 25.06609375 1.65023926 24.1946875 1.56665039 23.296875 C1.09051846 17.90373617 0.81969854 12.57308169 1.02734375 7.15625 C1.05970886 4.50265625 1.05970886 4.50265625 0 0 Z " fill="#D0996C" transform="translate(140,142)"/>
<path d="M0 0 C0.82915421 -0.00807175 1.65830841 -0.01614349 2.5125885 -0.02445984 C4.27017138 -0.03827798 6.02778083 -0.04901027 7.78540039 -0.05688477 C9.56087252 -0.06833734 11.33631208 -0.08868093 13.11157227 -0.1184082 C38.41108293 -0.54152438 38.41108293 -0.54152438 48.28515625 7.98828125 C49.36848958 9.07161458 50.45182292 10.15494792 51.53515625 11.23828125 C51.86515625 11.23828125 52.19515625 11.23828125 52.53515625 11.23828125 C52.78905378 17.33182201 52.15535251 22.3650698 50.53515625 28.23828125 C50.53515625 29.22828125 50.53515625 30.21828125 50.53515625 31.23828125 C24.79515625 31.23828125 -0.94484375 31.23828125 -27.46484375 31.23828125 C-29.71484375 16.61328125 -29.71484375 16.61328125 -30.08984375 11.42578125 C-30.16460937 10.42933594 -30.239375 9.43289062 -30.31640625 8.40625 C-30.36539063 7.69082031 -30.414375 6.97539063 -30.46484375 6.23828125 C-29.47484375 7.55828125 -28.48484375 8.87828125 -27.46484375 10.23828125 C-27.05234375 9.83996094 -26.63984375 9.44164063 -26.21484375 9.03125 C-18.50395931 1.957202 -10.28100839 0.09593262 0 0 Z " fill="#CDAF97" transform="translate(171.46484375,108.76171875)"/>
<path d="M0 0 C0.72245911 -0.01140015 1.44491821 -0.02280029 2.18927002 -0.0345459 C3.71205884 -0.05334931 5.23492727 -0.06647527 6.7578125 -0.07421875 C9.05877695 -0.09358714 11.35612584 -0.1556789 13.65625 -0.21875 C22.44075672 -0.34427696 29.43658771 0.35851682 36.328125 6.40625 C39.89613316 11.12861374 39.66912828 15.72286205 39.328125 21.40625 C37.7243919 22.05315922 36.12012194 22.69873764 34.515625 23.34375 C33.62230469 23.70339844 32.72898438 24.06304687 31.80859375 24.43359375 C17.33418097 30.10938711 -4.2506838 28.68599922 -19.109375 24.09375 C-22.08659119 22.58215182 -22.57978921 21.68361241 -23.6484375 18.46484375 C-24.56437026 13.09747776 -24.72935961 7.84265193 -24.671875 2.40625 C-23.46559492 4.73839148 -22.5064012 6.90267139 -21.671875 9.40625 C-21.16398438 8.92414063 -20.65609375 8.44203125 -20.1328125 7.9453125 C-19.44445312 7.31367188 -18.75609375 6.68203125 -18.046875 6.03125 C-17.37398437 5.40476563 -16.70109375 4.77828125 -16.0078125 4.1328125 C-11.13013841 0.52757513 -5.90381444 0.07364716 0 0 Z " fill="#CDAF96" transform="translate(174.671875,201.59375)"/>
<path d="M0 0 C30.36 0 60.72 0 92 0 C92.495 4.455 92.495 4.455 93 9 C88.545 9.495 88.545 9.495 84 10 C88.95 10.495 88.95 10.495 94 11 C94 11.33 94 11.66 94 12 C61.99 12 29.98 12 -3 12 C-3 11.67 -3 11.34 -3 11 C2.94 10.505 2.94 10.505 9 10 C5.7 9.67 2.4 9.34 -1 9 C-1 4 -1 4 0 0 Z " fill="#51BFBA" transform="translate(137,95)"/>
<path d="M0 0 C9.31853458 -0.04633734 18.6370295 -0.08187631 27.95565414 -0.10362434 C32.28265197 -0.11406222 36.60957097 -0.1282215 40.93652344 -0.15087891 C45.11215235 -0.17260714 49.28770545 -0.1845686 53.46338654 -0.18975449 C55.05659427 -0.19345028 56.64979786 -0.2006672 58.24297333 -0.21146011 C60.47424798 -0.22597485 62.70520918 -0.22797796 64.93652344 -0.22705078 C66.84180817 -0.23371262 66.84180817 -0.23371262 68.7855835 -0.24050903 C71.80432598 -0.01464072 73.47455016 0.4025924 76 2 C76 2.33 76 2.66 76 3 C75.1493396 2.89606934 75.1493396 2.89606934 74.28149414 2.79003906 C65.54642873 1.85327601 56.83223599 1.77953178 48.05688477 1.75976562 C45.4392989 1.75000671 42.8224826 1.7188667 40.20507812 1.6875 C27.64569501 1.60814536 17.22878248 2.15167975 7.625 11.25 C7.08875 11.8275 6.5525 12.405 6 13 C5.67 12.67 5.34 12.34 5 12 C5.165 12.969375 5.33 13.93875 5.5 14.9375 C6.13396273 19.29487763 6.0896672 23.60630704 6 28 C6.99 28.33 7.98 28.66 9 29 C9.99 29.66 10.98 30.32 12 31 C15.25715176 31.33076962 15.25715176 31.33076962 19.04174805 31.31884766 C20.11042114 31.33391609 20.11042114 31.33391609 21.20068359 31.34928894 C23.55435381 31.38016687 25.90791005 31.39716862 28.26171875 31.4140625 C29.8941191 31.43277047 31.52650974 31.4523436 33.15888977 31.4727478 C37.45454185 31.52411433 41.7502253 31.56371577 46.04602051 31.60089111 C50.42984811 31.64090248 54.81354471 31.69200788 59.19726562 31.7421875 C67.79808766 31.8390003 76.39897443 31.92338785 85 32 C85 32.33 85 32.66 85 33 C57.66311399 33.64898782 30.34540943 34.18392504 3 34 C3 34.66 3 35.32 3 36 C5.31 36 7.62 36 10 36 C9.67 36.99 9.34 37.98 9 39 C7.35 39 5.7 39 4 39 C4.11593506 40.1238208 4.23187012 41.2476416 4.35131836 42.40551758 C4.78622846 46.62305988 5.2202645 50.84069178 5.65405273 55.05834961 C5.84099322 56.87477996 6.02816258 58.69118676 6.21557617 60.50756836 C8.21260771 79.86546077 8.21260771 79.86546077 9 89 C10.98 89 12.96 89 15 89 C15 89.33 15 89.66 15 90 C48.66 90.495 48.66 90.495 83 91 C83 91.33 83 91.66 83 92 C82.07491135 92.02426056 82.07491135 92.02426056 81.13113403 92.04901123 C74.67321636 92.22202631 68.21646207 92.42106053 61.75976562 92.63476562 C59.354692 92.7110146 56.94940314 92.78077647 54.54394531 92.84375 C51.07278871 92.93577735 47.60309286 93.05163339 44.1328125 93.171875 C42.53688766 93.20652863 42.53688766 93.20652863 40.90872192 93.24188232 C33.42040271 93.53354191 25.65316115 94.49282524 20.02590942 99.89520264 C18.99516305 101.09881276 18.00252434 102.33653941 17.05859375 103.609375 C16.70925781 104.06828125 16.35992187 104.5271875 16 105 C15.67 105 15.34 105 15 105 C14.67 104.01 14.34 103.02 14 102 C14 106.29 14 110.58 14 115 C10.63745456 108.27490911 10.84632109 101.37658787 11 94 C9.68 94 8.36 94 7 94 C5.31460566 84.0044547 4.16609293 73.98693312 3.14013672 63.90600586 C2.87431497 61.30579922 2.59951925 58.70664001 2.32421875 56.10742188 C1.4865875 48.0412468 0.74906726 40.12185642 1 32 C1.99 32 2.98 32 4 32 C3.59612263 27.76365696 3.18707207 23.52785534 2.77319336 19.29248047 C2.63309262 17.8512124 2.49441322 16.40980544 2.35717773 14.96826172 C2.1598147 12.8977311 1.95736639 10.82775175 1.75390625 8.7578125 C1.63345947 7.5114502 1.5130127 6.26508789 1.38891602 4.98095703 C1.17585692 2.07859473 1.17585692 2.07859473 0 0 Z " fill="#312016" transform="translate(137,108)"/>
<path d="M0 0 C23.76 0 47.52 0 72 0 C72.99 3.3 73.98 6.6 75 10 C49.26 10 23.52 10 -3 10 C-2.01 6.7 -1.02 3.4 0 0 Z " fill="#4FC4C0" transform="translate(147,83)"/>
<path d="M0 0 C2.97 0 5.94 0 9 0 C9.20496094 1.18078125 9.40992188 2.3615625 9.62109375 3.578125 C9.89315305 5.13542997 10.16529268 6.6927209 10.4375 8.25 C10.57220703 9.02730469 10.70691406 9.80460938 10.84570312 10.60546875 C10.97783203 11.35957031 11.10996094 12.11367187 11.24609375 12.890625 C11.42676392 13.92751465 11.42676392 13.92751465 11.61108398 14.98535156 C12.00244416 17.01266117 12.48089751 19.00194515 13 21 C14.12918033 18.62690978 15.25342065 16.25168006 16.375 13.875 C16.69210938 13.20984375 17.00921875 12.5446875 17.3359375 11.859375 C19.16675254 7.96889305 20.72966893 4.11895224 22 0 C22.66 0 23.32 0 24 0 C25.31697037 2.74793818 26.62870369 5.49817185 27.9375 8.25 C28.31068359 9.02730469 28.68386719 9.80460938 29.06835938 10.60546875 C29.42607422 11.35957031 29.78378906 12.11367187 30.15234375 12.890625 C30.48226318 13.58188477 30.81218262 14.27314453 31.15209961 14.98535156 C31.98917528 16.97427999 32.53583974 18.89580682 33 21 C35.11670277 13.99757448 36.54034292 7.30696249 37 0 C39.64 0 42.28 0 45 0 C44.73445313 0.98097656 44.46890625 1.96195313 44.1953125 2.97265625 C41.73700338 12.28541898 40.04594049 21.42138705 39 31 C36.03 31 33.06 31 30 31 C29.36771484 29.30230469 29.36771484 29.30230469 28.72265625 27.5703125 C28.16932869 26.08852006 27.61594011 24.60675041 27.0625 23.125 C26.64581055 22.00544922 26.64581055 22.00544922 26.22070312 20.86328125 C24.74900806 16.87275485 24.74900806 16.87275485 23 13 C22.01706733 15.24842091 21.03855534 17.49859547 20.0625 19.75 C19.64581055 20.70132812 19.64581055 20.70132812 19.22070312 21.671875 C17.87320331 24.78898301 16.82697306 27.69210776 16 31 C13.03 31 10.06 31 7 31 C6.938125 29.535625 6.87625 28.07125 6.8125 26.5625 C6.01328632 17.41329263 2.89031522 8.67094567 0 0 Z " fill="#322A24" transform="translate(207,243)"/>
<path d="M0 0 C0.33 0 0.66 0 1 0 C1.495 5.445 1.495 5.445 2 11 C2.99 11 3.98 11 5 11 C5.39424067 21.0736262 4.18101951 30.94789723 3.0625 40.9375 C2.69688386 44.25886105 2.33444331 47.58056367 1.97265625 50.90234375 C1.88601715 51.69289154 1.79937805 52.48343933 1.71011353 53.29794312 C1.03416763 59.52388094 0.46720905 65.75468643 0 72 C-1.65 72.33 -3.3 72.66 -5 73 C-5.01458252 73.62044189 -5.02916504 74.24088379 -5.04418945 74.88012695 C-5.11866588 77.69154633 -5.21532564 80.50177749 -5.3125 83.3125 C-5.33505859 84.28896484 -5.35761719 85.26542969 -5.38085938 86.27148438 C-5.4340332 87.67817383 -5.4340332 87.67817383 -5.48828125 89.11328125 C-5.51446533 89.97735596 -5.54064941 90.84143066 -5.56762695 91.73168945 C-6.09015014 94.47294463 -6.810858 95.31508963 -9 97 C-24.78447819 104.30762879 -50.14973594 105.0819014 -66.59765625 99.046875 C-71.67696305 96.6460739 -71.67696305 96.6460739 -73 94 C-72.71887936 91.99199544 -72.38932033 89.98985949 -72 88 C-71.67 88 -71.34 88 -71 88 C-70.67 89.98 -70.34 91.96 -70 94 C-61.61544555 96.90754711 -53.87723401 98.7302498 -45 99 C-44.16984375 99.02835937 -43.3396875 99.05671875 -42.484375 99.0859375 C-39.98308478 99.12628089 -37.50025915 99.08197571 -35 99 C-33.98035156 98.97164063 -32.96070313 98.94328125 -31.91015625 98.9140625 C-24.05658261 98.52185074 -17.3221721 96.83651712 -10 94 C-9.78722039 88.68050971 -9.61007834 83.8993394 -12 79 C-13.74839144 77.70834575 -13.74839144 77.70834575 -16 77 C-16.87994629 76.49879639 -17.75989258 75.99759277 -18.66650391 75.48120117 C-22.52908062 73.76490903 -25.37088734 73.57258225 -29.5859375 73.48828125 C-30.63861313 73.46135445 -30.63861313 73.46135445 -31.71255493 73.43388367 C-33.93331053 73.38010953 -36.1538554 73.34599307 -38.375 73.3125 C-39.88935204 73.27929763 -41.40367638 73.24480529 -42.91796875 73.20898438 C-46.61177674 73.12440419 -50.30565879 73.0574365 -54 73 C-54 72.67 -54 72.34 -54 72 C-36.9900809 71.32491771 -20.02512492 70.84219761 -3 71 C-3 70.34 -3 69.68 -3 69 C-4.98 69 -6.96 69 -9 69 C-9 68.67 -9 68.34 -9 68 C-7.02 68 -5.04 68 -3 68 C-2.95174072 67.44014404 -2.90348145 66.88028809 -2.85375977 66.3034668 C-1.98323073 56.46299147 -0.95139325 46.63898602 0.0625 36.8125 C0.25071043 34.98373007 0.43886195 33.15495408 0.62695312 31.32617188 C1.0839562 26.88404438 1.54175657 22.44199971 2 18 C0.35 18 -1.3 18 -3 18 C-3.495 16.515 -3.495 16.515 -4 15 C-1.69 15 0.62 15 3 15 C3 14.34 3 13.68 3 13 C-14.16 13 -31.32 13 -49 13 C-49 12.67 -49 12.34 -49 12 C-33.16 12 -17.32 12 -1 12 C-1.495 9.525 -1.495 9.525 -2 7 C-1.0625 3.1875 -1.0625 3.1875 0 0 Z " fill="#3A2B24" transform="translate(223,129)"/>
<path d="M0 0 C0.33 1.32 0.66 2.64 1 4 C3.9719385 2.87548273 6.33440687 1.77706209 9 0 C13.99273591 -0.46229036 16.99990685 -0.08578614 21 3 C23.50083894 6.75125841 23.21222497 8.52066893 22.59375 12.8359375 C22 15 22 15 19.9375 17.5625 C16.19310737 19.39486235 13.04542889 19.79382001 9 19 C6.43372573 17.87664975 4.34702222 16.56468148 2 15 C2 16.32 2 17.64 2 19 C-7.7374975 19.76740348 -7.7374975 19.76740348 -12.1875 17.0625 C-14.62598159 12.94230696 -15.17349826 9.66866574 -14 5 C-9.71525996 -0.24880655 -6.57047439 -0.56642021 0 0 Z " fill="#383433" transform="translate(147,286)"/>
<path d="M0 0 C2.5625 1.4375 2.5625 1.4375 4 4 C5.00998667 8.94310784 4.42187802 12.89805309 1.875 17.25 C-1.02106805 21.38370398 -4.44320279 24.72160139 -9 27 C-10.64142541 27.14640501 -12.2898141 27.22096589 -13.9375 27.25 C-14.81277344 27.27578125 -15.68804687 27.3015625 -16.58984375 27.328125 C-19 27 -19 27 -20.76171875 25.68359375 C-22.83881425 22.85953015 -22.88644061 20.46356129 -23 17 C-21.79566784 10.47866949 -18.10384418 6.06112333 -13 2 C-8.78273256 -0.54563427 -4.81151259 -0.67979169 0 0 Z " fill="#362418" transform="translate(192,157)"/>
<path d="M0 0 C3.63 0 7.26 0 11 0 C11.23074219 1.01578125 11.46148437 2.0315625 11.69921875 3.078125 C13.74170579 11.79294879 16.34296776 19.80226602 20 28 C20.33 28.99 20.66 29.98 21 31 C18.36 31 15.72 31 13 31 C12.67 29.02 12.34 27.04 12 25 C7.71 25 3.42 25 -1 25 C-1.33 26.98 -1.66 28.96 -2 31 C-4.31 31 -6.62 31 -9 31 C-7.55104525 26.57263828 -6.06882303 22.16666089 -4.46484375 17.79296875 C-4.19365723 17.046521 -3.9224707 16.30007324 -3.64306641 15.53100586 C-3.09583892 14.02814094 -2.54227263 12.52756673 -1.98193359 11.02954102 C-1.72621582 10.32369873 -1.47049805 9.61785645 -1.20703125 8.890625 C-0.9747583 8.26188477 -0.74248535 7.63314453 -0.50317383 6.98535156 C0.20472973 4.53356031 0.20472973 4.53356031 0 0 Z " fill="#362E28" transform="translate(89,243)"/>
<path d="M0 0 C3.63 0 7.26 0 11 0 C11.09410156 0.94488281 11.18820313 1.88976562 11.28515625 2.86328125 C12.00009323 7.85527532 13.73235744 12.46102541 15.4375 17.1875 C15.75009766 18.07630859 16.06269531 18.96511719 16.38476562 19.88085938 C17.75635343 23.74044368 19.16209727 27.32419454 21 31 C18.03 31 15.06 31 12 31 C12 29.02 12 27.04 12 25 C7.71 25 3.42 25 -1 25 C-1.33 26.98 -1.66 28.96 -2 31 C-4.64 31 -7.28 31 -10 31 C-9.41992188 29.56720703 -9.41992188 29.56720703 -8.828125 28.10546875 C-6.38292996 22.04673146 -3.94746455 15.98191219 -1.625 9.875 C-1.30789062 9.04742187 -0.99078125 8.21984375 -0.6640625 7.3671875 C0.22508446 4.60740139 0.22508446 4.60740139 0 0 Z " fill="#38312C" transform="translate(185,243)"/>
<path d="M0 0 C3.63 0 7.26 0 11 0 C11.09410156 0.94488281 11.18820312 1.88976562 11.28515625 2.86328125 C12.00009323 7.85527532 13.73235744 12.46102541 15.4375 17.1875 C15.75009766 18.07630859 16.06269531 18.96511719 16.38476562 19.88085938 C17.75635343 23.74044368 19.16209727 27.32419454 21 31 C18.03 31 15.06 31 12 31 C12 29.02 12 27.04 12 25 C7.71 25 3.42 25 -1 25 C-1.33 26.98 -1.66 28.96 -2 31 C-4.64 31 -7.28 31 -10 31 C-9.41992188 29.56720703 -9.41992188 29.56720703 -8.828125 28.10546875 C-6.38292996 22.04673146 -3.94746455 15.98191219 -1.625 9.875 C-1.30789063 9.04742187 -0.99078125 8.21984375 -0.6640625 7.3671875 C0.22508446 4.60740139 0.22508446 4.60740139 0 0 Z " fill="#312924" transform="translate(263,243)"/>
<path d="M0 0 C9.31853458 -0.04633734 18.6370295 -0.08187631 27.95565414 -0.10362434 C32.28265197 -0.11406222 36.60957097 -0.1282215 40.93652344 -0.15087891 C45.11215235 -0.17260714 49.28770545 -0.1845686 53.46338654 -0.18975449 C55.05659427 -0.19345028 56.64979786 -0.2006672 58.24297333 -0.21146011 C60.47424798 -0.22597485 62.70520918 -0.22797796 64.93652344 -0.22705078 C66.84180817 -0.23371262 66.84180817 -0.23371262 68.7855835 -0.24050903 C71.80432598 -0.01464072 73.47455016 0.4025924 76 2 C76 2.33 76 2.66 76 3 C75.1493396 2.89606934 75.1493396 2.89606934 74.28149414 2.79003906 C65.54642873 1.85327601 56.83223599 1.77953178 48.05688477 1.75976562 C45.4392989 1.75000671 42.8224826 1.7188667 40.20507812 1.6875 C27.64569501 1.60814536 17.22878248 2.15167975 7.625 11.25 C7.08875 11.8275 6.5525 12.405 6 13 C5.67 12.67 5.34 12.34 5 12 C5.165 12.969375 5.33 13.93875 5.5 14.9375 C6.13396273 19.29487763 6.0896672 23.60630704 6 28 C6.99 28.33 7.98 28.66 9 29 C9.99 29.66 10.98 30.32 12 31 C15.25715176 31.33076962 15.25715176 31.33076962 19.04174805 31.31884766 C20.11042114 31.33391609 20.11042114 31.33391609 21.20068359 31.34928894 C23.55435381 31.38016687 25.90791005 31.39716862 28.26171875 31.4140625 C29.8941191 31.43277047 31.52650974 31.4523436 33.15888977 31.4727478 C37.45454185 31.52411433 41.7502253 31.56371577 46.04602051 31.60089111 C50.42984811 31.64090248 54.81354471 31.69200788 59.19726562 31.7421875 C67.79808766 31.8390003 76.39897443 31.92338785 85 32 C85 32.33 85 32.66 85 33 C78.80741442 33.14701428 72.61474122 33.28923487 66.42193604 33.42669678 C64.22966154 33.47543924 62.03740055 33.52479315 59.84515381 33.57476807 C48.66641253 33.82666759 37.49441842 34.05610044 26.3125 33.9609375 C25.51480194 33.95503601 24.71710388 33.94913452 23.89523315 33.9430542 C20.20692185 33.91266199 16.52016121 33.8634179 12.83251953 33.78710938 C10.90835205 33.76487305 10.90835205 33.76487305 8.9453125 33.7421875 C7.83687988 33.7201123 6.72844727 33.69803711 5.58642578 33.67529297 C4.30614502 33.83602295 4.30614502 33.83602295 3 34 C2.34 34.99 1.68 35.98 1 37 C1 35.35 1 33.7 1 32 C1.99 32 2.98 32 4 32 C3.59612263 27.76365696 3.18707207 23.52785534 2.77319336 19.29248047 C2.63309262 17.8512124 2.49441322 16.40980544 2.35717773 14.96826172 C2.1598147 12.8977311 1.95736639 10.82775175 1.75390625 8.7578125 C1.63345947 7.5114502 1.5130127 6.26508789 1.38891602 4.98095703 C1.17585692 2.07859473 1.17585692 2.07859473 0 0 Z " fill="#34261D" transform="translate(137,108)"/>
<path d="M0 0 C0.82915421 -0.00807175 1.65830841 -0.01614349 2.5125885 -0.02445984 C4.27017138 -0.03827798 6.02778083 -0.04901027 7.78540039 -0.05688477 C9.56087252 -0.06833734 11.33631208 -0.08868093 13.11157227 -0.1184082 C38.27736774 -0.53928809 38.27736774 -0.53928809 47.84765625 7.48828125 C49.17796875 8.84953125 49.17796875 8.84953125 50.53515625 10.23828125 C48.53515625 11.23828125 48.53515625 11.23828125 46.23657227 10.48950195 C45.24326904 10.11398193 44.24996582 9.73846191 43.2265625 9.3515625 C34.64684479 6.6104424 26.21849668 6.54474176 17.26928711 6.4543457 C14.47376898 6.42579262 11.67976899 6.37055703 8.88476562 6.31054688 C-8.38923893 5.32108428 -8.38923893 5.32108428 -24.46484375 10.23828125 C-25.12484375 9.90828125 -25.78484375 9.57828125 -26.46484375 9.23828125 C-18.67159248 2.02952382 -10.45844143 0.09758826 0 0 Z " fill="#A98D76" transform="translate(171.46484375,108.76171875)"/>
<path d="M0 0 C6.6 0 13.2 0 20 0 C20 1.98 20 3.96 20 6 C15.71 5.34 11.42 4.68 7 4 C7 6.64 7 9.28 7 12 C10.3 12 13.6 12 17 12 C17 14.31 17 16.62 17 19 C16.01 18.34 15.02 17.68 14 17 C11.67612053 16.60612212 9.34206251 16.26513915 7 16 C7 19.63 7 23.26 7 27 C8.5675 26.87625 10.135 26.7525 11.75 26.625 C12.63171875 26.55539062 13.5134375 26.48578125 14.421875 26.4140625 C16.99066382 26.00149945 18.75841015 25.28839043 21 24 C20.67 26.31 20.34 28.62 20 31 C13.07 31 6.14 31 -1 31 C-0.67 30.34 -0.34 29.68 0 29 C0.08559118 26.82175039 0.10713412 24.64084745 0.09765625 22.4609375 C0.09443359 21.15898437 0.09121094 19.85703125 0.08789062 18.515625 C0.07953466 17.13541601 0.07106971 15.75520768 0.0625 14.375 C0.05748501 12.98698074 0.0529221 11.59895978 0.04882812 10.2109375 C0.03700985 6.80727327 0.0190739 3.4036313 0 0 Z " fill="#332A24" transform="translate(150,243)"/>
<path d="M0 0 C0.33 0.66 0.66 1.32 1 2 C0.40174601 3.23258359 -0.2560117 4.43641099 -0.9375 5.625 C-3.98115227 12.34684688 -4.49254431 19.79863809 -3 27 C-1.62361599 30.64775251 0.23473004 33.99963613 2.12695312 37.40039062 C5.0071023 42.65365727 6.49988443 46.97824178 5 53 C3.63665137 56.75456219 1.73390064 59.36527512 -1.3125 62 C-4.89993115 63.3348581 -7.32628857 62.91842786 -11 62 C-11.33 61.34 -11.66 60.68 -12 60 C-11.37351563 59.89042969 -10.74703125 59.78085938 -10.1015625 59.66796875 C-9.28429687 59.50941406 -8.46703125 59.35085937 -7.625 59.1875 C-6.81289062 59.03667969 -6.00078125 58.88585937 -5.1640625 58.73046875 C-2.64179359 58.12455058 -2.64179359 58.12455058 -1 55 C-0.4105218 48.63092519 -1.67649936 44.43409524 -4.4375 38.75 C-8.70539118 29.65643384 -11.15676535 20.56040026 -8.28125 10.48046875 C-6.25728636 6.21219059 -3.51142744 3.12126884 0 0 Z " fill="#332824" transform="translate(189,14)"/>
<path d="M0 0 C2.97 0 5.94 0 9 0 C10.88695626 4.28853694 12.58192622 8.52761347 14 13 C14.66 13 15.32 13 16 13 C16.268125 12.154375 16.53625 11.30875 16.8125 10.4375 C18.0478595 6.86145933 19.476988 3.46139092 21 0 C23.64 0 26.28 0 29 0 C27.52439089 4.20160278 25.37142204 7.51444893 22.875 11.1875 C19.23892222 16.79488739 17.75280915 21.33974368 19 28 C19.33 28.99 19.66 29.98 20 31 C16.7 31 13.4 31 10 31 C10.33 29.68 10.66 28.36 11 27 C11.95109382 19.76706421 10.15554755 15.44241688 6.0625 9.5625 C5.13665933 8.1680082 4.21087535 6.77347876 3.28515625 5.37890625 C2.87144775 4.7763501 2.45773926 4.17379395 2.03149414 3.55297852 C1 2 1 2 0 0 Z " fill="#322B28" transform="translate(284,243)"/>
<path d="M0 0 C0.33 1.32 0.66 2.64 1 4 C1.99 4 2.98 4 4 4 C4 7.63 4 11.26 4 15 C3.34 15 2.68 15 2 15 C2 16.32 2 17.64 2 19 C-7.7374975 19.76740348 -7.7374975 19.76740348 -12.1875 17.0625 C-14.62598159 12.94230696 -15.17349826 9.66866574 -14 5 C-9.71525996 -0.24880655 -6.57047439 -0.56642021 0 0 Z " fill="#F7F4F4" transform="translate(147,286)"/>
<path d="M0 0 C7.92 0 15.84 0 24 0 C24 1.98 24 3.96 24 6 C21.03 5.34 18.06 4.68 15 4 C15.1387078 7.93778511 15.28718492 11.87514223 15.4375 15.8125 C15.47681641 16.93205078 15.51613281 18.05160156 15.55664062 19.20507812 C15.61948242 20.81479492 15.61948242 20.81479492 15.68359375 22.45703125 C15.72025146 23.44678955 15.75690918 24.43654785 15.79467773 25.45629883 C15.90790331 28.1218351 15.90790331 28.1218351 17 31 C14.03 31 11.06 31 8 31 C8.33 22.09 8.66 13.18 9 4 C4.39391071 5.22726546 4.39391071 5.22726546 0 7 C0 4.69 0 2.38 0 0 Z " fill="#2D231F" transform="translate(53,243)"/>
<path d="M0 0 C0.99 0.33 1.98 0.66 3 1 C2.84144531 1.68835938 2.68289062 2.37671875 2.51953125 3.0859375 C0.72438076 13.15497711 1.96906903 21.72270469 6 31 C6.67681023 32.99659018 7.34961499 34.99464622 8 37 C4.71963505 36.38355558 2.60268734 35.24247146 -0.0625 33.25 C-0.73410156 32.76015625 -1.40570313 32.2703125 -2.09765625 31.765625 C-5.08479697 28.99316585 -6.72574668 26.3513932 -7.5390625 22.34375 C-7.81018063 13.37220461 -4.68331261 7.40728014 0 0 Z " fill="#EAE7E7" transform="translate(179,21)"/>
<path d="M0 0 C23.76 0 47.52 0 72 0 C72.99 3.3 73.98 6.6 75 10 C49.26 10 23.52 10 -3 10 C-2.67 9.01 -2.34 8.02 -2 7 C-1.34 7 -0.68 7 0 7 C0.33 6.01 0.66 5.02 1 4 C2.9375 4.375 2.9375 4.375 5 5 C5.33 5.66 5.66 6.32 6 7 C8.98367726 7.99455909 11.2004192 8.19559632 14.32421875 8.31640625 C15.86625977 8.37924805 15.86625977 8.37924805 17.43945312 8.44335938 C19.04723633 8.50233398 19.04723633 8.50233398 20.6875 8.5625 C21.77095703 8.60568359 22.85441406 8.64886719 23.97070312 8.69335938 C26.64700791 8.79946838 29.32340526 8.90152361 32 9 C32.33 8.01 32.66 7.02 33 6 C34.98 6 36.96 6 39 6 C39 6.99 39 7.98 39 9 C43.58382974 8.89018094 48.16683432 8.7595352 52.75 8.625 C54.05195313 8.5940625 55.35390625 8.563125 56.6953125 8.53125 C58.57089844 8.47324219 58.57089844 8.47324219 60.484375 8.4140625 C61.63647461 8.3826416 62.78857422 8.3512207 63.97558594 8.31884766 C66.84834422 8.01598825 68.56179611 7.4911762 71 6 C71 4.35 71 2.7 71 1 C47.57 1 24.14 1 0 1 C0 0.67 0 0.34 0 0 Z " fill="#578B82" transform="translate(147,83)"/>
<path d="M0 0 C2.19140625 0.03125 2.19140625 0.03125 5.69140625 0.78125 C-0.30859375 8.78125 -0.30859375 8.78125 -2.0703125 10.734375 C-3.51776127 12.71960932 -3.51776127 12.71960932 -3.27734375 15.14453125 C-2.00398202 18.61033434 -0.08557417 21.06848222 2.19140625 23.96875 C6.61963206 29.63770161 6.61963206 29.63770161 7.69140625 31.78125 C3.73140625 32.27625 3.73140625 32.27625 -0.30859375 32.78125 C-2.18347586 30.21238035 -4.02960566 27.62413701 -5.87109375 25.03125 C-6.40412109 24.30164063 -6.93714844 23.57203125 -7.48632812 22.8203125 C-7.98583984 22.11132812 -8.48535156 21.40234375 -9 20.671875 C-9.69911499 19.69782715 -9.69911499 19.69782715 -10.41235352 18.70410156 C-11.30859375 16.78125 -11.30859375 16.78125 -11.05078125 14.7265625 C-9.05301758 9.49031878 -5.56060429 1.88176118 0 0 Z " fill="#342C27" transform="translate(136.30859375,242.21875)"/>
<path d="M0 0 C2.97 0 5.94 0 9 0 C9 10.23 9 20.46 9 31 C6.03 31 3.06 31 0 31 C0.33 30.34 0.66 29.68 1 29 C1.09700679 27.07615411 1.13076217 25.1489452 1.1328125 23.22265625 C1.13410156 22.06958984 1.13539062 20.91652344 1.13671875 19.72851562 C1.13285156 18.51873047 1.12898438 17.30894531 1.125 16.0625 C1.13080078 14.25362305 1.13080078 14.25362305 1.13671875 12.40820312 C1.13542969 11.25384766 1.13414063 10.09949219 1.1328125 8.91015625 C1.13168457 7.84933838 1.13055664 6.78852051 1.12939453 5.69555664 C1.11696125 2.9002556 1.11696125 2.9002556 0 0 Z " fill="#2C241E" transform="translate(116,243)"/>
<path d="M0 0 C0.66 0.33 1.32 0.66 2 1 C2 2.65 2 4.3 2 6 C0.02 6.33 -1.96 6.66 -4 7 C-4.05534912 7.56920166 -4.11069824 8.13840332 -4.16772461 8.72485352 C-4.42270715 11.33756224 -4.68008678 13.95002968 -4.9375 16.5625 C-5.02451172 17.45775391 -5.11152344 18.35300781 -5.20117188 19.27539062 C-5.68876749 24.20552409 -6.2542319 29.10211759 -7 34 C-7.33 34 -7.66 34 -8 34 C-8.01417969 32.90300781 -8.02835938 31.80601562 -8.04296875 30.67578125 C-8.08988708 29.22131302 -8.13813438 27.76688723 -8.1875 26.3125 C-8.19330078 25.59126953 -8.19910156 24.87003906 -8.20507812 24.12695312 C-8.37163362 20.07410277 -8.67785321 18.40599322 -11.28125 15.125 C-13.60217881 13.3109407 -15.64718928 11.90721847 -18.3125 10.6875 C-19.00988281 10.36136719 -19.70726562 10.03523438 -20.42578125 9.69921875 C-20.94527344 9.46847656 -21.46476563 9.23773438 -22 9 C-21.67 8.34 -21.34 7.68 -21 7 C-21.66 6.34 -22.32 5.68 -23 5 C-15.41 5 -7.82 5 0 5 C0 3.35 0 1.7 0 0 Z " fill="#33271F" transform="translate(232,103)"/>
<path d="M0 0 C1.57554035 2.88628401 2.46276373 5.53342384 3.125 8.75 C3.29257812 9.54921875 3.46015625 10.3484375 3.6328125 11.171875 C3.81457031 12.07679688 3.81457031 12.07679688 4 13 C4.66 13 5.32 13 6 13 C6.33 10.69 6.66 8.38 7 6 C10.09135473 8.54530347 10.90949413 11.16105568 12.0625 14.9375 C13.17554782 18.54484775 14.30053664 21.60107328 16 25 C13.03 25 10.06 25 7 25 C7 23.02 7 21.04 7 19 C2.71 19 -1.58 19 -6 19 C-6 18.67 -6 18.34 -6 18 C-2.04 17.67 1.92 17.34 6 17 C4.41727399 15.41727399 2.61965997 15.65264253 0.4375 15.4375 C-0.38878906 15.35371094 -1.21507812 15.26992188 -2.06640625 15.18359375 C-2.70449219 15.12300781 -3.34257812 15.06242187 -4 15 C-2.9318153 9.88634986 -1.76892524 4.92772031 0 0 Z " fill="#403A34" transform="translate(268,249)"/>
<path d="M0 0 C0.66 0 1.32 0 2 0 C2.96070434 2.88211302 3.10581883 4.69850044 3.0625 7.6875 C3.05347656 8.49574219 3.04445312 9.30398437 3.03515625 10.13671875 C3.02355469 10.75160156 3.01195312 11.36648437 3 12 C3.99 12.33 4.98 12.66 6 13 C6.99 13.66 7.98 14.32 9 15 C12.25715176 15.33076962 12.25715176 15.33076962 16.04174805 15.31884766 C17.11042114 15.33391609 17.11042114 15.33391609 18.20068359 15.34928894 C20.55435381 15.38016687 22.90791005 15.39716862 25.26171875 15.4140625 C26.8941191 15.43277047 28.52650974 15.4523436 30.15888977 15.4727478 C34.45454185 15.52411433 38.7502253 15.56371577 43.04602051 15.60089111 C47.42984811 15.64090248 51.81354471 15.69200788 56.19726562 15.7421875 C64.79808766 15.8390003 73.39897443 15.92338785 82 16 C82 16.33 82 16.66 82 17 C75.80741442 17.14701428 69.61474122 17.28923487 63.42193604 17.42669678 C61.22966154 17.47543924 59.03740055 17.52479315 56.84515381 17.57476807 C45.66641253 17.82666759 34.49441842 18.05610044 23.3125 17.9609375 C22.51480194 17.95503601 21.71710388 17.94913452 20.89523315 17.9430542 C17.20692185 17.91266199 13.52016121 17.8634179 9.83251953 17.78710938 C7.90835205 17.76487305 7.90835205 17.76487305 5.9453125 17.7421875 C4.28266357 17.70907471 4.28266357 17.70907471 2.58642578 17.67529297 C1.73290527 17.78244629 0.87938477 17.88959961 0 18 C-0.66 18.99 -1.32 19.98 -2 21 C-2 19.35 -2 17.7 -2 16 C-1.01 16 -0.02 16 1 16 C0.67 10.72 0.34 5.44 0 0 Z " fill="#241614" transform="translate(140,124)"/>
<path d="M0 0 C0.33 0.99 0.66 1.98 1 3 C3.31 3 5.62 3 8 3 C7.67 3.99 7.34 4.98 7 6 C5.35 6 3.7 6 2 6 C2.11593506 7.1238208 2.23187012 8.2476416 2.35131836 9.40551758 C2.78622846 13.62305988 3.2202645 17.84069178 3.65405273 22.05834961 C3.84099322 23.87477996 4.02816258 25.69118676 4.21557617 27.50756836 C6.21260771 46.86546077 6.21260771 46.86546077 7 56 C8.98 56 10.96 56 13 56 C13 56.33 13 56.66 13 57 C11.02 57 9.04 57 7 57 C7 57.66 7 58.32 7 59 C7.99 59.33 8.98 59.66 10 60 C7.525 60.495 7.525 60.495 5 61 C3.32003155 50.98615962 2.13417612 40.94753979 1.08520508 30.85107422 C0.81139837 28.23949263 0.52392234 25.62962587 0.23632812 23.01953125 C0.05905379 21.33081735 -0.11740707 19.64201781 -0.29296875 17.953125 C-0.42254219 16.80435883 -0.42254219 16.80435883 -0.55473328 15.63238525 C-1.09205328 10.25088884 -0.74018103 5.35958806 0 0 Z " fill="#342D29" transform="translate(139,141)"/>
<path d="M0 0 C-0.45439453 0.69222656 -0.45439453 0.69222656 -0.91796875 1.3984375 C-3.9480696 6.11607143 -6.50707714 10.91900822 -8.88671875 15.99609375 C-10 18 -10 18 -12 19 C-14.01927511 18.39421747 -16.02253397 17.73080266 -18 17 C-17.8744886 10.97545294 -15.95758415 8.01672655 -11.8359375 3.66796875 C-8.11971292 0.29173918 -4.91030721 -0.28058898 0 0 Z " fill="#9A653B" transform="translate(190,159)"/>
<path d="M0 0 C5.31610837 -0.10002085 10.63165079 -0.17200342 15.94848633 -0.21972656 C17.75131795 -0.23965268 19.55408658 -0.26680384 21.35668945 -0.30175781 C45.43197915 -0.756387 45.43197915 -0.756387 53.890625 5.36914062 C55.3125 6.75 55.3125 6.75 57 9 C53.37501283 8.14706184 49.92204457 6.95831964 46.4140625 5.71875 C41.20278349 4.16717178 36.04655454 3.84018959 30.6328125 3.68359375 C29.95322479 3.66281265 29.27363708 3.64203156 28.57345581 3.62062073 C26.42406334 3.5557637 24.2745593 3.49654059 22.125 3.4375 C20.6588431 3.39425388 19.19269706 3.35063775 17.7265625 3.30664062 C14.15115725 3.20014896 10.57562963 3.09870591 7 3 C7 2.34 7 1.68 7 1 C4.69 1 2.38 1 0 1 C0 0.67 0 0.34 0 0 Z " fill="#8F735E" transform="translate(163,109)"/>
<path d="M0 0 C4.95 0 9.9 0 15 0 C13.515 1.485 13.515 1.485 12 3 C13.32 3.99 14.64 4.98 16 6 C15.67 7.65 15.34 9.3 15 11 C10.05 11 5.1 11 0 11 C0 7.37 0 3.74 0 0 Z " fill="#DDDAD9" transform="translate(83,168)"/>
<path d="M0 0 C4.29 0 8.58 0 13 0 C12.67 1.32 12.34 2.64 12 4 C9.69 3.67 7.38 3.34 5 3 C5 4.32 5 5.64 5 7 C6.98 7 8.96 7 11 7 C11 8.32 11 9.64 11 11 C8.03 10.505 8.03 10.505 5 10 C5 11.98 5 13.96 5 16 C7.64 15.67 10.28 15.34 13 15 C13 16.32 13 17.64 13 19 C8.71 19 4.42 19 0 19 C0 12.73 0 6.46 0 0 Z " fill="#38292A" transform="translate(220,286)"/>
<path d="M0 0 C0.99 0.33 1.98 0.66 3 1 C3 2.32 3 3.64 3 5 C-22.74 5 -48.48 5 -75 5 C-75 4.67 -75 4.34 -75 4 C-65.26515211 2.60624425 -55.75756546 3.3022643 -46 4 C-46 3.34 -46 2.68 -46 2 C-43.04160645 1.97310551 -40.08345573 1.95321259 -37.125 1.9375 C-36.28324219 1.92912109 -35.44148438 1.92074219 -34.57421875 1.91210938 C-33.76855469 1.90888672 -32.96289062 1.90566406 -32.1328125 1.90234375 C-31.01737061 1.89448853 -31.01737061 1.89448853 -29.87939453 1.88647461 C-28 2 -28 2 -26 3 C-23.05274854 3.09892058 -20.13431802 3.13891102 -17.1875 3.125 C-15.97610352 3.13080078 -15.97610352 3.13080078 -14.74023438 3.13671875 C-6.96675157 3.1484978 -6.96675157 3.1484978 0 0 Z " fill="#A68E7C" transform="translate(219,135)"/>
<path d="M0 0 C3.96 0 7.92 0 12 0 C12 0.99 12 1.98 12 3 C9.69 3 7.38 3 5 3 C5 4.32 5 5.64 5 7 C6.98 7 8.96 7 11 7 C11 8.32 11 9.64 11 11 C8.03 10.505 8.03 10.505 5 10 C5 11.98 5 13.96 5 16 C7.64 15.67 10.28 15.34 13 15 C12.67 16.32 12.34 17.64 12 19 C8.04 19 4.08 19 0 19 C0 12.73 0 6.46 0 0 Z " fill="#3F3D3C" transform="translate(204,286)"/>
<path d="M0 0 C1.55361262 -0.02150161 3.10710669 -0.05551171 4.66015625 -0.10253906 C14.35764417 -0.39286445 21.8732305 -0.05149228 29.72119141 6.4050293 C29.39119141 7.0650293 29.06119141 7.7250293 28.72119141 8.4050293 C27.94195312 7.98930664 27.94195312 7.98930664 27.14697266 7.56518555 C20.42807289 4.07533188 15.26355991 3.16172709 7.72119141 3.4050293 C6.73119141 3.7350293 5.74119141 4.0650293 4.72119141 4.4050293 C4.72119141 5.0650293 4.72119141 5.7250293 4.72119141 6.4050293 C-0.80760441 6.78199265 -0.80760441 6.78199265 -3.15380859 4.9050293 C-8.11328728 1.40422081 -16.52097191 3.65864306 -22.27880859 4.4050293 C-15.79118816 -0.92408749 -7.99762014 0.08297678 0 0 Z " fill="#A5826C" transform="translate(181.27880859375,201.594970703125)"/>
<path d="M0 0 C0.69802734 -0.00386719 1.39605469 -0.00773437 2.11523438 -0.01171875 C7.31086006 -0.00163994 7.31086006 -0.00163994 8.4375 1.125 C9.87318047 1.20024531 11.31249713 1.20813401 12.75 1.1875 C14.10520752 1.17493164 14.10520752 1.17493164 15.48779297 1.16210938 C16.46119629 1.14986328 17.43459961 1.13761719 18.4375 1.125 C28.1471953 1.0551118 37.75676892 1.40600671 47.4375 2.125 C47.4375 2.455 47.4375 2.785 47.4375 3.125 C15.4275 3.125 -16.5825 3.125 -49.5625 3.125 C-49.5625 2.795 -49.5625 2.465 -49.5625 2.125 C-38.04474435 1.51521739 -26.56055564 0.9750422 -15.02392578 1.16210938 C-9.84544269 1.22466016 -5.25437948 -0.02927231 0 0 Z " fill="#48837E" transform="translate(183.5625,103.875)"/>
<path d="M0 0 C1.875 1.0625 1.875 1.0625 3 3 C3.50349299 6.95601633 3.57169314 9.1204721 1.375 12.5 C-1 14 -1 14 -4.125 14 C-7 13 -7 13 -8.375 11.3125 C-9.16898908 8.3747404 -9.32237597 6.0303341 -9 3 C-6.79086995 -0.68188342 -4.01844539 -0.50230567 0 0 Z " fill="#F2EFEE" transform="translate(163,289)"/>
<path d="M0 0 C0.99 0.33 1.98 0.66 3 1 C3.79953138 4.28696233 4.09658936 5.71023192 3 9 C3.62648437 8.96519531 4.25296875 8.93039062 4.8984375 8.89453125 C5.71570313 8.86746094 6.53296875 8.84039062 7.375 8.8125 C8.18710938 8.77769531 8.99921875 8.74289062 9.8359375 8.70703125 C10.55007812 8.80371094 11.26421875 8.90039062 12 9 C12.99 10.485 12.99 10.485 14 12 C9.71 12 5.42 12 1 12 C0.67 14.31 0.34 16.62 0 19 C-2.64 19 -5.28 19 -8 19 C-7.04381086 16.5824652 -6.08513489 14.16596734 -5.125 11.75 C-4.85558594 11.06808594 -4.58617187 10.38617188 -4.30859375 9.68359375 C-2.9954778 6.38479027 -1.66598286 3.13787064 0 0 Z " fill="#302821" transform="translate(183,255)"/>
<path d="M0 0 C3.63 0 7.26 0 11 0 C13.39892578 10.58349609 13.39892578 10.58349609 12 15 C11.01 15.99 10.02 16.98 9 18 C7.68 14.37 6.36 10.74 5 7 C2.03 9.475 2.03 9.475 -1 12 C-0.67 8.04 -0.34 4.08 0 0 Z " fill="#302B26" transform="translate(89,243)"/>
<path d="M0 0 C3.96 0 7.92 0 12 0 C11.67 1.32 11.34 2.64 11 4 C8.03 3.505 8.03 3.505 5 3 C5 4.65 5 6.3 5 8 C6.98 8 8.96 8 11 8 C11 9.32 11 10.64 11 12 C8.03 11.505 8.03 11.505 5 11 C5.33 13.64 5.66 16.28 6 19 C4.02 19 2.04 19 0 19 C0 12.73 0 6.46 0 0 Z " fill="#292524" transform="translate(173,286)"/>
<path d="M0 0 C0.33 1.32 0.66 2.64 1 4 C0.36191406 3.98839844 -0.27617187 3.97679687 -0.93359375 3.96484375 C-1.75988281 3.95582031 -2.58617187 3.94679688 -3.4375 3.9375 C-4.26121094 3.92589844 -5.08492187 3.91429687 -5.93359375 3.90234375 C-7.99163938 3.76732652 -7.99163938 3.76732652 -9 5 C-9.0979057 6.49738124 -9.12974864 7.99942892 -9.125 9.5 C-9.12757813 10.3146875 -9.13015625 11.129375 -9.1328125 11.96875 C-9.2245178 13.99530377 -9.2245178 13.99530377 -8 15 C-6.48071962 15.07179964 -4.95832518 15.08392007 -3.4375 15.0625 C-2.61121094 15.05347656 -1.78492188 15.04445313 -0.93359375 15.03515625 C-0.29550781 15.02355469 0.34257812 15.01195312 1 15 C0.67 16.32 0.34 17.64 0 19 C-4.7373412 19.46444522 -7.94841058 19.66529126 -12.0625 17.0625 C-14.30991371 13.5101364 -14.79919898 11.30831598 -14.54296875 7.16015625 C-13.81071673 4.24695217 -12.31879004 2.50947773 -9.8671875 0.796875 C-6.51871936 -0.63217835 -3.59120904 -0.30958699 0 0 Z " fill="#302B29" transform="translate(147,286)"/>
<path d="M0 0 C3 1 3 1 4 3 C4.76250806 9.83757228 4.16994994 14.47763387 0 20 C-3.19837823 22.76616496 -4.48140856 23.02592957 -8.75 22.8125 C-9.8225 22.544375 -10.895 22.27625 -12 22 C-12.33 21.34 -12.66 20.68 -13 20 C-12.37351563 19.89042969 -11.74703125 19.78085938 -11.1015625 19.66796875 C-10.28429687 19.50941406 -9.46703125 19.35085937 -8.625 19.1875 C-7.81289062 19.03667969 -7.00078125 18.88585937 -6.1640625 18.73046875 C-3.64179359 18.12455058 -3.64179359 18.12455058 -2 15 C-1.86367391 12.2095754 -2.0035254 9.48152588 -2.125 6.69140625 C-1.99524771 3.89767731 -1.43292515 2.36768491 0 0 Z " fill="#332925" transform="translate(190,54)"/>
<path d="M0 0 C2.64 0 5.28 0 8 0 C7.73445312 0.99257812 7.46890625 1.98515625 7.1953125 3.0078125 C4.84651808 11.97674395 3.09488715 20.77989768 2 30 C1.34 30 0.68 30 0 30 C0.01740234 28.33710938 0.01740234 28.33710938 0.03515625 26.640625 C0.04453792 25.17708502 0.05363771 23.71354322 0.0625 22.25 C0.07087891 21.52039063 0.07925781 20.79078125 0.08789062 20.0390625 C0.10399303 16.49653382 -0.13441967 13.41365414 -1 10 C-0.91760895 8.245868 -0.76901219 6.49388075 -0.5625 4.75 C-0.46066406 3.85796875 -0.35882813 2.9659375 -0.25390625 2.046875 C-0.17011719 1.37140625 -0.08632812 0.6959375 0 0 Z " fill="#2B241E" transform="translate(244,243)"/>
<path d="M0 0 C1.051875 0.185625 2.10375 0.37125 3.1875 0.5625 C7.21712933 1.22231967 7.21712933 1.22231967 12 0 C12.33 3.96 12.66 7.92 13 12 C6.07 11.505 6.07 11.505 -1 11 C-0.01 9.35 0.98 7.7 2 6 C2.69579454 3.80869466 2.69579454 3.80869466 3 2 C2.01 2 1.02 2 0 2 C0 1.34 0 0.68 0 0 Z " fill="#EDEDEB" transform="translate(266,168)"/>
<path d="M0 0 C3.96 0 7.92 0 12 0 C12 1.32 12 2.64 12 4 C9.36 3.67 6.72 3.34 4 3 C4 4.65 4 6.3 4 8 C5.98 8 7.96 8 10 8 C9.67 9.32 9.34 10.64 9 12 C7.35 11.67 5.7 11.34 4 11 C4.33 13.64 4.66 16.28 5 19 C3.35 19 1.7 19 0 19 C0 12.73 0 6.46 0 0 Z " fill="#231F1D" transform="translate(189,286)"/>
<path d="M0 0 C1.38048412 2.1925336 2 3.63913394 2 6.25 C-0.00180392 11.75496079 -3.31882118 15.93309806 -8.25 19.0625 C-9.61125 19.5265625 -9.61125 19.5265625 -11 20 C-11.66 19.67 -12.32 19.34 -13 19 C-12.3915625 18.30261719 -11.783125 17.60523438 -11.15625 16.88671875 C-8.30766676 13.07312633 -6.96487347 9.0861905 -5.34375 4.64453125 C-3.87376411 1.75156483 -3.01117624 1.03987654 0 0 Z " fill="#8B5B30" transform="translate(192,162)"/>
<path d="M0 0 C2.93774463 -0.05390357 5.87450232 -0.0936255 8.8125 -0.125 C10.06256836 -0.15013672 10.06256836 -0.15013672 11.33789062 -0.17578125 C12.14033203 -0.18222656 12.94277344 -0.18867188 13.76953125 -0.1953125 C14.50792236 -0.20578613 15.24631348 -0.21625977 16.00708008 -0.22705078 C18 0 18 0 21 2 C22.9896995 2.39013716 24.99019869 2.73202649 27 3 C27 3.33 27 3.66 27 4 C15.12035567 5.0427274 3.87108755 5.14223523 -8 4 C-8 3.67 -8 3.34 -8 3 C-5.36 2.67 -2.72 2.34 0 2 C0 1.34 0 0.68 0 0 Z " fill="#99806B" transform="translate(174,224)"/>
<path d="M0 0 C0.33 0.99 0.66 1.98 1 3 C0.67 3.66 0.34 4.32 0 5 C-1.03568771 15.3699871 -0.09576952 22.27361566 6 31 C0.34923702 28.97319741 -1.72189352 25.91715973 -5 21 C-6.17797223 12.74179469 -4.78461171 6.76680798 0 0 Z " fill="#3A302E" transform="translate(177,25)"/>
<path d="M0 0 C2 3 2 3 2 5 C3.98 5 5.96 5 8 5 C10.66891665 9.866848 9.79058688 13.70306788 9 19 C3.06 18.67 -2.88 18.34 -9 18 C-9 17.67 -9 17.34 -9 17 C-8.30132812 16.91363281 -7.60265625 16.82726562 -6.8828125 16.73828125 C-4.16031137 16.31795176 -1.61803791 15.86256547 1 15 C2.75568004 12.54251602 2.75568004 12.54251602 3 10 C3.99 10 4.98 10 6 10 C6 9.01 6 8.02 6 7 C3.69 6.67 1.38 6.34 -1 6 C-1.33 4.35 -1.66 2.7 -2 1 C-1.34 0.67 -0.68 0.34 0 0 Z " fill="#283D37" transform="translate(223,88)"/>
<path d="M0 0 C6.40818182 -0.36272727 6.40818182 -0.36272727 8.9375 1.1875 C10.38718434 3.66049093 10.42317323 5.17884512 10 8 C8.9375 9.8125 8.9375 9.8125 7 11 C3.3125 11.1875 3.3125 11.1875 0 11 C0 7.37 0 3.74 0 0 Z " fill="#3D3C3C" transform="translate(111,168)"/>
<path d="M0 0 C1.32 0.66 2.64 1.32 4 2 C3.34 2 2.68 2 2 2 C2 2.99 2 3.98 2 5 C5.303314 5.88935377 8.62294375 6.46274105 12 7 C12 7.33 12 7.66 12 8 C7.545 8.495 7.545 8.495 3 9 C3 9.33 3 9.66 3 10 C7.62 10.66 12.24 11.32 17 12 C17 12.33 17 12.66 17 13 C11.06 13 5.12 13 -1 13 C-1 13.66 -1 14.32 -1 15 C-0.01 15.33 0.98 15.66 2 16 C0.35 16 -1.3 16 -3 16 C-3.37851209 10.06997733 -2.10575375 5.52760359 0 0 Z " fill="#203B32" transform="translate(135,93)"/>
<path d="M0 0 C0.33 0 0.66 0 1 0 C2.5379551 12.17894171 1.34724337 23.85996859 0 36 C-1.98 36.495 -1.98 36.495 -4 37 C-3.67 35.68 -3.34 34.36 -3 33 C-4.98 33 -6.96 33 -9 33 C-9 32.67 -9 32.34 -9 32 C-7.02 32 -5.04 32 -3 32 C-2.95101562 31.44957031 -2.90203125 30.89914063 -2.8515625 30.33203125 C-1.94204007 20.21751459 -0.96713214 10.10913518 0 0 Z " fill="#493829" transform="translate(223,165)"/>
<path d="M0 0 C3.0625 -0.25 3.0625 -0.25 6 0 C7 1 7 1 7.1328125 3.03125 C7.13023437 3.8459375 7.12765625 4.660625 7.125 5.5 C7.12757813 6.3146875 7.13015625 7.129375 7.1328125 7.96875 C7 10 7 10 6 11 C3.0625 11.25 3.0625 11.25 0 11 C-2.1642235 7.75366476 -2.37569856 6.75698557 -2 3 C-1.34 2.01 -0.68 1.02 0 0 Z " fill="#3E3E3D" transform="translate(256,168)"/>
<path d="M0 0 C-0.33 2.31 -0.66 4.62 -1 7 C-7.93 7 -14.86 7 -22 7 C-19 4 -19 4 -16.3125 3.8125 C-15.549375 3.874375 -14.78625 3.93625 -14 4 C-14 3.67 -14 3.34 -14 3 C-13.31292969 2.95101563 -12.62585938 2.90203125 -11.91796875 2.8515625 C-10.56638672 2.73941406 -10.56638672 2.73941406 -9.1875 2.625 C-8.29417969 2.55539062 -7.40085938 2.48578125 -6.48046875 2.4140625 C-3.99870132 1.99978321 -2.29637418 0 0 0 Z " fill="#2A2420" transform="translate(171,267)"/>
<path d="M0 0 C2.97 0 5.94 0 9 0 C8.67 8.91 8.34 17.82 8 27 C7.34 27.33 6.68 27.66 6 28 C6 19.42 6 10.84 6 2 C4.35 2.33 2.7 2.66 1 3 C0.67 2.01 0.34 1.02 0 0 Z " fill="#37312D" transform="translate(116,243)"/>
<path d="M0 0 C0 3.55727701 -0.51103367 3.8523915 -2.875 6.3125 C-5.62509172 9.36095072 -7.01307474 11.95360643 -8 16 C-10.10306598 12.58251778 -10.40603518 9.97914475 -10 6 C-7.41344447 0.70931824 -5.76204694 -0.15163281 0 0 Z " fill="#B88660" transform="translate(178,158)"/>
<path d="M0 0 C1.9375 0.375 1.9375 0.375 4 1 C4.33 1.66 4.66 2.32 5 3 C7.7902667 3.9300889 9.76529542 4.18698769 12.66796875 4.31640625 C14.00698242 4.37924805 14.00698242 4.37924805 15.37304688 4.44335938 C16.76620117 4.50233398 16.76620117 4.50233398 18.1875 4.5625 C19.12787109 4.60568359 20.06824219 4.64886719 21.03710938 4.69335938 C23.35792854 4.79938665 25.67885325 4.90145029 28 5 C28 5.33 28 5.66 28 6 C17.44 6 6.88 6 -4 6 C-3.67 5.01 -3.34 4.02 -3 3 C-2.34 3 -1.68 3 -1 3 C-0.67 2.01 -0.34 1.02 0 0 Z " fill="#578F8D" transform="translate(148,87)"/>
<path d="M0 0 C14.52 0 29.04 0 44 0 C46 5 46 5 46 8 C45.01 8 44.02 8 43 8 C42.505 4.535 42.505 4.535 42 1 C28.14 1 14.28 1 0 1 C0 0.67 0 0.34 0 0 Z " fill="#352C29" transform="translate(177,81)"/>
<path d="M0 0 C0.33 0.66 0.66 1.32 1 2 C0.2578125 3.77734375 0.2578125 3.77734375 -0.875 5.9375 C-3.36451496 11.2084041 -3.7843336 16.23092378 -4 22 C-4.33 22 -4.66 22 -5 22 C-5 20.02 -5 18.04 -5 16 C-6.32 16 -7.64 16 -9 16 C-8.65988792 9.1977583 -4.64401598 4.64401598 0 0 Z " fill="#33302E" transform="translate(189,14)"/>
<path d="M0 0 C2 4 2 4 3 7 C3.61875 6.21625 4.2375 5.4325 4.875 4.625 C9.49155914 0.00844086 16.41082159 -0.09188715 22.625 -0.125 C24.295625 -0.063125 24.295625 -0.063125 26 0 C26.33 0.66 26.66 1.32 27 2 C26.04738281 2.04898438 25.09476563 2.09796875 24.11328125 2.1484375 C22.85902344 2.22320312 21.60476562 2.29796875 20.3125 2.375 C18.45044922 2.47941406 18.45044922 2.47941406 16.55078125 2.5859375 C12.17081325 3.09669284 9.25029279 3.62246502 6.234375 6.9453125 C5.74453125 7.66460937 5.2546875 8.38390625 4.75 9.125 C3.85012803 10.4284228 2.93793625 11.72369434 2 13 C1.67 13 1.34 13 1 13 C0.67 8.71 0.34 4.42 0 0 Z " fill="#B49985" transform="translate(150,204)"/>
<path d="M0 0 C0 0.66 0 1.32 0 2 C-0.99 2.17015625 -1.98 2.3403125 -3 2.515625 C-10.25909806 3.82760982 -16.48356099 5.42234721 -23 9 C-23.66 8.67 -24.32 8.34 -25 8 C-17.20258342 0.78738966 -10.526828 -0.52247124 0 0 Z " fill="#A3826C" transform="translate(170,110)"/>
<path d="M0 0 C2.48212484 4.60966042 4 8.72927515 4 14 C1.36 14 -1.28 14 -4 14 C-3.52188823 12.22888156 -3.0424722 10.45811517 -2.5625 8.6875 C-2.29566406 7.70136719 -2.02882812 6.71523437 -1.75390625 5.69921875 C-1.21920575 3.78482474 -0.62855462 1.88566385 0 0 Z " fill="#E9E5E2" transform="translate(190,249)"/>
<path d="M0 0 C1.69433918 3.0469629 2.49467112 5.82821466 3.125 9.25 C3.29257812 10.14203125 3.46015625 11.0340625 3.6328125 11.953125 C3.75398438 12.62859375 3.87515625 13.3040625 4 14 C1.36 14 -1.28 14 -4 14 C-3.52372025 12.04096255 -3.04388577 10.08278903 -2.5625 8.125 C-2.29566406 7.03445313 -2.02882813 5.94390625 -1.75390625 4.8203125 C-1 2 -1 2 0 0 Z " fill="#EAE7E2" transform="translate(268,249)"/>
<path d="M0 0 C2.00993705 3.01490557 2.72623341 5.2149927 3.625 8.6875 C3.88539062 9.68136719 4.14578125 10.67523438 4.4140625 11.69921875 C4.60742188 12.45847656 4.80078125 13.21773438 5 14 C2.03 14 -0.94 14 -4 14 C-2.68 9.38 -1.36 4.76 0 0 Z " fill="#EAE8E2" transform="translate(94,249)"/>
<path d="M0 0 C3.96 0 7.92 0 12 0 C11.67 1.32 11.34 2.64 11 4 C8.03 3.505 8.03 3.505 5 3 C5 4.65 5 6.3 5 8 C4.34 8 3.68 8 3 8 C2.67 10.64 2.34 13.28 2 16 C1.67 16 1.34 16 1 16 C0.67 10.72 0.34 5.44 0 0 Z " fill="#4B4746" transform="translate(173,286)"/>
<path d="M0 0 C3.96 0 7.92 0 12 0 C12 0.99 12 1.98 12 3 C9.69 3 7.38 3 5 3 C4.67 4.32 4.34 5.64 4 7 C3.67 6.34 3.34 5.68 3 5 C2.67 8.96 2.34 12.92 2 17 C1.67 17 1.34 17 1 17 C0.67 11.39 0.34 5.78 0 0 Z " fill="#555352" transform="translate(204,286)"/>
<path d="M0 0 C4.29 0 8.58 0 13 0 C12.67 1.32 12.34 2.64 12 4 C9.69 3.67 7.38 3.34 5 3 C4.67 4.32 4.34 5.64 4 7 C4 5.68 4 4.36 4 3 C3.34 3 2.68 3 2 3 C2 7.29 2 11.58 2 16 C1.67 16 1.34 16 1 16 C0.67 10.72 0.34 5.44 0 0 Z " fill="#56514F" transform="translate(220,286)"/>
<path d="M0 0 C0.99 0.33 1.98 0.66 3 1 C2.67 6.94 2.34 12.88 2 19 C1.01 18.67 0.02 18.34 -1 18 C-2.04559253 11.41276707 -1.83292414 6.40766041 0 0 Z " fill="#50403A" transform="translate(215,204)"/>
<path d="M0 0 C2 2 2 2 2.4375 5.375 C2 9 2 9 -0.25 11.5 C-3 13 -3 13 -5.3125 12.75 C-5.869375 12.5025 -6.42625 12.255 -7 12 C-6.5875 11.319375 -6.175 10.63875 -5.75 9.9375 C-3.79034942 6.64808652 -1.8926147 3.32839137 0 0 Z " fill="#A87B55" transform="translate(195,170)"/>
<path d="M0 0 C0.99 0.33 1.98 0.66 3 1 C-1.28865979 8.04565538 -1.28865979 8.04565538 -5 9 C-8.6875 8.75 -8.6875 8.75 -12 8 C-12.33 7.34 -12.66 6.68 -13 6 C-12.39671875 5.90203125 -11.7934375 5.8040625 -11.171875 5.703125 C-6.29421718 4.79053096 -3.16176612 4.12404277 0 0 Z " fill="#393330" transform="translate(190,68)"/>
<path d="M0 0 C-0.75 5.75 -0.75 5.75 -3 8 C-0.03 8.495 -0.03 8.495 3 9 C3 9.33 3 9.66 3 10 C0.36 10 -2.28 10 -5 10 C-6.60725635 6.78548731 -6.05748185 3.56387464 -6 0 C-3.50907189 -1.24546405 -2.58919267 -0.7767578 0 0 Z " fill="#E0E0DF" transform="translate(269,170)"/>
<path d="M0 0 C4.95 0 9.9 0 15 0 C14.67 0.99 14.34 1.98 14 3 C13.34 3 12.68 3 12 3 C12 3.66 12 4.32 12 5 C6.60223048 5.36802974 6.60223048 5.36802974 3.75 3.625 C2.47599906 2.44199913 1.22934321 1.22934321 0 0 Z " fill="#93735C" transform="translate(174,203)"/>
<path d="M0 0 C0.66 1.32 1.32 2.64 2 4 C-0.88375157 6.88375157 -3.01114165 8.31825682 -7.0625 8.5 C-11 8 -11 8 -13.5 6 C-13.995 5.34 -14.49 4.68 -15 4 C-14.34 3.34 -13.68 2.68 -13 2 C-12.1646875 2.7734375 -12.1646875 2.7734375 -11.3125 3.5625 C-9.08723079 5.27060758 -9.08723079 5.27060758 -6.4375 4.75 C-4.61764204 4.19004371 -2.80634732 3.60211577 -1 3 C-0.67 2.01 -0.34 1.02 0 0 Z " fill="#3A3333" transform="translate(167,297)"/>
<path d="M0 0 C0.33 1.32 0.66 2.64 1 4 C-4.85671807 7.68136565 -9.358523 9.23505736 -16.3125 9.625 C-17.56675781 9.69976562 -18.82101563 9.77453125 -20.11328125 9.8515625 C-21.54220703 9.92503906 -21.54220703 9.92503906 -23 10 C-23 9.67 -23 9.34 -23 9 C-21.91460937 8.74605469 -20.82921875 8.49210938 -19.7109375 8.23046875 C-18.26553276 7.88319618 -16.82022535 7.53551836 -15.375 7.1875 C-14.66214844 7.02185547 -13.94929687 6.85621094 -13.21484375 6.68554688 C-8.81580266 5.61605523 -4.94274119 4.31105291 -1 2 C-0.67 1.34 -0.34 0.68 0 0 Z " fill="#30221A" transform="translate(215,220)"/>
<path d="M0 0 C0.33 0 0.66 0 1 0 C1.27675737 9.25599658 0.53140195 17.87995448 -1 27 C-1.33 27 -1.66 27 -2 27 C-2.05444001 23.99975053 -2.0938836 21.00050961 -2.125 18 C-2.14175781 17.16082031 -2.15851563 16.32164062 -2.17578125 15.45703125 C-2.21849117 9.94745123 -1.55502007 5.28951708 0 0 Z " fill="#33251A" transform="translate(226,147)"/>
<path d="M0 0 C1.42944945 2.35438733 2.08661261 3.48032433 1.625 6.25 C1.41875 6.8275 1.2125 7.405 1 8 C0.34 8 -0.32 8 -1 8 C-3.03871245 8.1762044 -3.03871245 8.1762044 -5 9 C-6.28436734 10.9837767 -6.28436734 10.9837767 -7 13 C-7.33 12.34 -7.66 11.68 -8 11 C-7.109375 8.65234375 -7.109375 8.65234375 -5.75 5.9375 C-5.31171875 5.03902344 -4.8734375 4.14054688 -4.421875 3.21484375 C-3 1 -3 1 0 0 Z " fill="#624127" transform="translate(192,162)"/>
<path d="M0 0 C0.66 0.33 1.32 0.66 2 1 C2 4.63 2 8.26 2 12 C0.68 12.33 -0.64 12.66 -2 13 C-3 12 -3 12 -3.25 8.1875 C-3.22395215 4.56033701 -2.63994297 2.63994297 0 0 Z " fill="#423E3D" transform="translate(153,288)"/>
<path d="M0 0 C9.25558436 -0.50485006 16.19099503 2.18167778 24 7 C23.67 7.66 23.34 8.32 23 9 C22.44054687 8.66226563 21.88109375 8.32453125 21.3046875 7.9765625 C14.06499628 3.94933877 7.1907297 2.79074768 -1 2 C-0.67 1.34 -0.34 0.68 0 0 Z " fill="#BC9C85" transform="translate(189,204)"/>
<path d="M0 0 C0 0.33 0 0.66 0 1 C-0.56396484 1.04487549 -1.12792969 1.08975098 -1.70898438 1.13598633 C-4.30712522 1.34957223 -6.90340346 1.58092152 -9.5 1.8125 C-10.386875 1.88275391 -11.27375 1.95300781 -12.1875 2.02539062 C-19.49317824 2.6968684 -26.29879225 4.01144322 -32 9 C-32.33 8.34 -32.66 7.68 -33 7 C-31.44015481 3.88030962 -28.84776426 3.21897557 -25.72265625 1.88671875 C-17.58842648 -0.76244934 -8.4643095 -0.14995824 0 0 Z " fill="#C3A48C" transform="translate(176,114)"/>
<path d="M0 0 C0.33 0 0.66 0 1 0 C1 1.98 1 3.96 1 6 C3.64 5.67 6.28 5.34 9 5 C9 6.32 9 7.64 9 9 C4.71 9 0.42 9 -4 9 C-3.67 8.01 -3.34 7.02 -3 6 C-2.01 6 -1.02 6 0 6 C0 4.02 0 2.04 0 0 Z " fill="#383131" transform="translate(224,296)"/>
<path d="M0 0 C2.97 0 5.94 0 9 0 C9 0.66 9 1.32 9 2 C8.01 2 7.02 2 6 2 C6 4.97 6 7.94 6 11 C5.01 11 4.02 11 3 11 C3 8.03 3 5.06 3 2 C2.01 2 1.02 2 0 2 C0 1.34 0 0.68 0 0 Z " fill="#555253" transform="translate(100,168)"/>
<path d="M0 0 C3.96 0 7.92 0 12 0 C12 1.32 12 2.64 12 4 C9.36 3.67 6.72 3.34 4 3 C4 4.65 4 6.3 4 8 C3.34 7.67 2.68 7.34 2 7 C1.61781233 5.34385343 1.28604898 3.67542976 1 2 C0.67 1.34 0.34 0.68 0 0 Z " fill="#3A3736" transform="translate(189,286)"/>
<path d="M0 0 C2 4 2 4 1.42578125 6.0703125 C1.05839844 6.74835938 0.69101563 7.42640625 0.3125 8.125 C-0.04199219 8.80820313 -0.39648438 9.49140625 -0.76171875 10.1953125 C-2 12 -2 12 -5 14 C-5 13.34 -5 12.68 -5 12 C-5.99 12.33 -6.98 12.66 -8 13 C-9.32 11.68 -10.64 10.36 -12 9 C-9.69 9.33 -7.38 9.66 -5 10 C-3.35 6.7 -1.7 3.4 0 0 Z " fill="#472E1D" transform="translate(184,167)"/>
<path d="M0 0 C2.0625 0.4375 2.0625 0.4375 4 1 C4 3.31 4 5.62 4 8 C2.35 8.33 0.7 8.66 -1 9 C-1.09765625 2.84765625 -1.09765625 2.84765625 -1 1 C-0.67 0.67 -0.34 0.34 0 0 Z " fill="#DBDADA" transform="translate(114,169)"/>
<path d="M0 0 C1.25224024 3.75672071 0.61855923 5.78460577 -0.25 9.625 C-0.62898437 11.37683594 -0.62898437 11.37683594 -1.015625 13.1640625 C-1.34046875 14.09992187 -1.6653125 15.03578125 -2 16 C-2.99 16.33 -3.98 16.66 -5 17 C-5.64317031 9.92512658 -3.82735898 5.90506815 0 0 Z " fill="#2D282A" transform="translate(177,25)"/>
<path d="M0 0 C0.33 0.99 0.66 1.98 1 3 C3.31 3 5.62 3 8 3 C7.67 3.99 7.34 4.98 7 6 C5.35 6 3.7 6 2 6 C1.67 10.29 1.34 14.58 1 19 C0.67 19 0.34 19 0 19 C-0.19534474 16.58373582 -0.38153404 14.16734771 -0.5625 11.75 C-0.61857422 11.06808594 -0.67464844 10.38617188 -0.73242188 9.68359375 C-0.98186254 6.2579419 -1.13879745 3.27298823 0 0 Z " fill="#4C3E33" transform="translate(139,141)"/>
<path d="M0 0 C1.65 0.33 3.3 0.66 5 1 C5.625 2.8125 5.625 2.8125 6 5 C5.01 6.485 5.01 6.485 4 8 C4.66 8.33 5.32 8.66 6 9 C6 9.66 6 10.32 6 11 C3.69 11 1.38 11 -1 11 C-0.525625 10.2575 -0.05125 9.515 0.4375 8.75 C1.77869327 6.38949985 2.512312 4.63351523 3 2 C2.01 2 1.02 2 0 2 C0 1.34 0 0.68 0 0 Z " fill="#444443" transform="translate(266,168)"/>
<path d="M0 0 C1.32 0.66 2.64 1.32 4 2 C3.34 2 2.68 2 2 2 C2 2.99 2 3.98 2 5 C5.303314 5.88935377 8.62294375 6.46274105 12 7 C12 7.33 12 7.66 12 8 C10.04235617 8.19456705 8.08384679 8.38044247 6.125 8.5625 C5.03445312 8.66691406 3.94390625 8.77132812 2.8203125 8.87890625 C0 9 0 9 -2 8 C-1.34 5.36 -0.68 2.72 0 0 Z " fill="#39524D" transform="translate(135,93)"/>
<path d="M0 0 C2.31 0 4.62 0 7 0 C6.67 0.66 6.34 1.32 6 2 C4.68 1.67 3.36 1.34 2 1 C2 2.32 2 3.64 2 5 C2.99 5.33 3.98 5.66 5 6 C4.01 6 3.02 6 2 6 C2 7.32 2 8.64 2 10 C3.65 9.67 5.3 9.34 7 9 C7 9.66 7 10.32 7 11 C4.69 11 2.38 11 0 11 C0 7.37 0 3.74 0 0 Z " fill="#2A2726" transform="translate(83,168)"/>
<path d="M0 0 C1.65 0 3.3 0 5 0 C3.515 1.485 3.515 1.485 2 3 C3.32 3.99 4.64 4.98 6 6 C5.67 7.65 5.34 9.3 5 11 C3.02 11 1.04 11 -1 11 C-1 10.34 -1 9.68 -1 9 C1.475 9.495 1.475 9.495 4 10 C2.86695008 6.60085025 1.87481525 5.94745549 -1 4 C-0.67 2.68 -0.34 1.36 0 0 Z " fill="#322E2E" transform="translate(93,168)"/>
<path d="M0 0 C6.73023176 0.50794202 12.86060476 2.14070345 19 5 C19.33 5.66 19.66 6.32 20 7 C6.3667426 3.92482916 6.3667426 3.92482916 0 2 C0 1.34 0 0.68 0 0 Z " fill="#BB9C81" transform="translate(202,113)"/>
<path d="M0 0 C0.66 0 1.32 0 2 0 C2.66 1.98 3.32 3.96 4 6 C-1.28 6 -6.56 6 -12 6 C-12 5.67 -12 5.34 -12 5 C-10.7625 4.87625 -9.525 4.7525 -8.25 4.625 C-5.1237803 4.24253695 -2.71120763 3.69450477 0 2 C0 1.34 0 0.68 0 0 Z " fill="#3A7A71" transform="translate(218,87)"/>
<path d="M0 0 C0.99 0.33 1.98 0.66 3 1 C2.34 6.94 1.68 12.88 1 19 C0.67 19 0.34 19 0 19 C-0.06058594 18.30132812 -0.12117187 17.60265625 -0.18359375 16.8828125 C-0.26738281 15.97273438 -0.35117188 15.06265625 -0.4375 14.125 C-0.51871094 13.22007813 -0.59992188 12.31515625 -0.68359375 11.3828125 C-0.86989285 8.98889139 -0.86989285 8.98889139 -2 7 C-1.6127985 4.41865665 -1.1694002 2.33880039 0 0 Z " fill="#CDCBCC" transform="translate(179,21)"/>
<path d="M0 0 C-0.33 0.99 -0.66 1.98 -1 3 C-4.96 3 -8.92 3 -13 3 C-11 0 -11 0 -8.90625 -0.546875 C-8.1121875 -0.61390625 -7.318125 -0.6809375 -6.5 -0.75 C-5.7059375 -0.82734375 -4.911875 -0.9046875 -4.09375 -0.984375 C-2 -1 -2 -1 0 0 Z " fill="#32302E" transform="translate(217,302)"/>
<path d="M0 0 C0.66 0 1.32 0 2 0 C3.04449911 3.13349732 2.93423645 3.98968256 2 7 C-0.64 7 -3.28 7 -6 7 C-5.34 6.01 -4.68 5.02 -4 4 C-3.34 4 -2.68 4 -2 4 C-1.34 2.68 -0.68 1.36 0 0 Z " fill="#28221E" transform="translate(181,267)"/>
<path d="M0 0 C1.32 0 2.64 0 4 0 C4 3.63 4 7.26 4 11 C3.01 11 2.02 11 1 11 C0.67 7.37 0.34 3.74 0 0 Z " fill="#5A5B59" transform="translate(274,168)"/>
<path d="M0 0 C1.66611905 -0.042721 3.33382885 -0.04063832 5 0 C6 1 6 1 6.25 3.3125 C5.95899829 6.44076838 5.05619793 7.68677733 3 10 C3.99 10.33 4.98 10.66 6 11 C4.02 11 2.04 11 0 11 C0.28875 10.443125 0.5775 9.88625 0.875 9.3125 C2.0413253 6.91505355 3.0339881 4.48403061 4 2 C2.68 2 1.36 2 0 2 C0 1.34 0 0.68 0 0 Z " fill="#393939" transform="translate(246,168)"/>
<path d="M0 0 C-3.71884134 3.71884134 -9.43114905 3.05539879 -14.4375 3.0625 C-15.95839326 3.04663375 -17.4792733 3.02753831 -19 3 C-13.24736889 -0.83508741 -6.68199149 -0.11884965 0 0 Z " fill="#BD9A80" transform="translate(174,112)"/>
<path d="M0 0 C0.33 0 0.66 0 1 0 C1 2.64 1 5.28 1 8 C1.66 8 2.32 8 3 8 C2.855625 8.9075 2.71125 9.815 2.5625 10.75 C1.78452415 16.14026126 1.41887914 21.57239588 1 27 C0.67 27 0.34 27 0 27 C0 18.09 0 9.18 0 0 Z " fill="#E0DCD8" transform="translate(124,245)"/>
<path d="M0 0 C0.66 0.33 1.32 0.66 2 1 C1.67 5.62 1.34 10.24 1 15 C0.34 15 -0.32 15 -1 15 C-1.02693575 12.87506859 -1.04636628 10.75004088 -1.0625 8.625 C-1.07410156 7.44164062 -1.08570313 6.25828125 -1.09765625 5.0390625 C-1 2 -1 2 0 0 Z " fill="#41362F" transform="translate(245,258)"/>
<path d="M0 0 C0.33 0.66 0.66 1.32 1 2 C1.66 2 2.32 2 3 2 C2.67 3.65 2.34 5.3 2 7 C1.34 6.67 0.68 6.34 0 6 C-0.99 6.99 -1.98 7.98 -3 9 C-3.75 7.3125 -3.75 7.3125 -4 5 C-2.0625 2.25 -2.0625 2.25 0 0 Z " fill="#2F2722" transform="translate(129,251)"/>
<path d="M0 0 C0.99 0.66 1.98 1.32 3 2 C2.67 3.32 2.34 4.64 2 6 C-0.64 6 -3.28 6 -6 6 C-5.34 5.01 -4.68 4.02 -4 3 C-3.34 3 -2.68 3 -2 3 C-2 2.34 -2 1.68 -2 1 C-1.34 0.67 -0.68 0.34 0 0 Z " fill="#28221F" transform="translate(259,268)"/>
<path d="M0 0 C1.45742463 -0.08096803 2.91612807 -0.13917774 4.375 -0.1875 C5.18710937 -0.22230469 5.99921875 -0.25710938 6.8359375 -0.29296875 C7.55007813 -0.19628906 8.26421875 -0.09960938 9 0 C9.66 0.99 10.32 1.98 11 3 C7.04 3 3.08 3 -1 3 C-0.67 2.01 -0.34 1.02 0 0 Z " fill="#27231E" transform="translate(264,264)"/>
<path d="M0 0 C3.3 0 6.6 0 10 0 C10 2.31 10 4.62 10 7 C9.01 6.34 8.02 5.68 7 5 C7 4.01 7 3.02 7 2 C5.02 2 3.04 2 1 2 C0.67 1.34 0.34 0.68 0 0 Z " fill="#3D3936" transform="translate(157,255)"/>
<path d="M0 0 C0.33 0 0.66 0 1 0 C1.66 2.64 2.32 5.28 3 8 C2.34 8 1.68 8 1 8 C1 8.66 1 9.32 1 10 C-1.64 10 -4.28 10 -7 10 C-6.67 9.34 -6.34 8.68 -6 8 C-5.01 8 -4.02 8 -3 8 C-1.58622659 5.36095629 -0.62759865 2.92879371 0 0 Z " fill="#D5D5D5" transform="translate(252,170)"/>
<path d="M0 0 C3.1875 -0.25 3.1875 -0.25 6 0 C6.66 1.32 7.32 2.64 8 4 C4.37 4 0.74 4 -3 4 C-2.01 2.68 -1.02 1.36 0 0 Z " fill="#A1836B" transform="translate(180,132)"/>
<path d="M0 0 C1.32 0 2.64 0 4 0 C4 2.31 4 4.62 4 7 C2.68 7 1.36 7 0 7 C0 4.69 0 2.38 0 0 Z " fill="#EFF0EE" transform="translate(257,170)"/>
<path d="M0 0 C0.66 0.33 1.32 0.66 2 1 C2.05422947 2.4370809 2.09289723 3.87475462 2.125 5.3125 C2.14820313 6.11300781 2.17140625 6.91351563 2.1953125 7.73828125 C2 10 2 10 0 13 C-0.66 13 -1.32 13 -2 13 C-1.835 11.906875 -1.67 10.81375 -1.5 9.6875 C-0.93281816 6.12474127 -0.93281816 6.12474127 -1 3 C-0.67 2.01 -0.34 1.02 0 0 Z " fill="#332012" transform="translate(194,160)"/>
<path d="M0 0 C1.32 0 2.64 0 4 0 C3.67 5.94 3.34 11.88 3 18 C2.67 18 2.34 18 2 18 C2 12.72 2 7.44 2 2 C1.34 2 0.68 2 0 2 C0 1.34 0 0.68 0 0 Z " fill="#AB7953" transform="translate(221,147)"/>
<path d="M0 0 C1.32 0.66 2.64 1.32 4 2 C4 5.3 4 8.6 4 12 C3.67 12 3.34 12 3 12 C3 10.02 3 8.04 3 6 C1.68 6 0.36 6 -1 6 C-0.67 4.02 -0.34 2.04 0 0 Z " fill="#443D39" transform="translate(181,24)"/>
<path d="M0 0 C-0.95421808 1.14926266 -1.91352045 2.29430541 -2.875 3.4375 C-3.40867188 4.07558594 -3.94234375 4.71367187 -4.4921875 5.37109375 C-6 7 -6 7 -8 8 C-8.75 6.25 -8.75 6.25 -9 4 C-6.34633802 0.3256988 -4.47218731 -0.4969097 0 0 Z " fill="#865D3C" transform="translate(178,158)"/>
<path d="M0 0 C1.9375 0.375 1.9375 0.375 4 1 C4.33 1.66 4.66 2.32 5 3 C5.99 3.66 6.98 4.32 8 5 C4.7 5 1.4 5 -2 5 C-1.34 3.35 -0.68 1.7 0 0 Z " fill="#41948B" transform="translate(148,87)"/>
<path d="M0 0 C4.95 0 9.9 0 15 0 C15 0.33 15 0.66 15 1 C12.03 1 9.06 1 6 1 C6.33 1.99 6.66 2.98 7 4 C5.35 3.67 3.7 3.34 2 3 C1.67 3.66 1.34 4.32 1 5 C0.67 3.35 0.34 1.7 0 0 Z " fill="#D3D0D1" transform="translate(94,167)"/>
<path d="M0 0 C4.8333472 -0.08333357 9.23692563 0.04738513 14 1 C14 1.33 14 1.66 14 2 C9.05 2.33 4.1 2.66 -1 3 C-0.67 2.01 -0.34 1.02 0 0 Z " fill="#488C87" transform="translate(216,102)"/>
<path d="M0 0 C1.09054688 0.02320312 2.18109375 0.04640625 3.3046875 0.0703125 C4.40039062 0.08835937 5.49609375 0.10640625 6.625 0.125 C7.46804687 0.14820312 8.31109375 0.17140625 9.1796875 0.1953125 C9.1796875 1.1853125 9.1796875 2.1753125 9.1796875 3.1953125 C2.2496875 2.7003125 2.2496875 2.7003125 -4.8203125 2.1953125 C-2.8203125 0.1953125 -2.8203125 0.1953125 0 0 Z " fill="#467C78" transform="translate(140.8203125,101.8046875)"/>
<path d="M0 0 C0.33 0.99 0.66 1.98 1 3 C-2.82989106 4.80230168 -5.78121808 5.19622241 -10 5 C-10 4.34 -10 3.68 -10 3 C-8.35 3 -6.7 3 -5 3 C-5 2.34 -5 1.68 -5 1 C-3 0 -3 0 0 0 Z " fill="#49A49F" transform="translate(218,87)"/>
<path d="M0 0 C3.96 0 7.92 0 12 0 C11.67 1.32 11.34 2.64 11 4 C10.67 3.67 10.34 3.34 10 3 C7.68047431 2.71898054 5.36114486 2.55217375 3.03125 2.37890625 C2.3609375 2.25386719 1.690625 2.12882812 1 2 C0.67 1.34 0.34 0.68 0 0 Z " fill="#373234" transform="translate(173,286)"/>
<path d="M0 0 C2.64 0 5.28 0 8 0 C8.33 2.31 8.66 4.62 9 7 C8.01 7 7.02 7 6 7 C6 5.68 6 4.36 6 3 C4.35 3 2.7 3 1 3 C0.67 2.01 0.34 1.02 0 0 Z " fill="#5F442F" transform="translate(219,144)"/>
<path d="M0 0 C3.96 0 7.92 0 12 0 C12 0.99 12 1.98 12 3 C10.18674449 2.88648483 8.37436643 2.75887039 6.5625 2.625 C5.04849609 2.52058594 5.04849609 2.52058594 3.50390625 2.4140625 C2.67761719 2.27742188 1.85132813 2.14078125 1 2 C0.67 1.34 0.34 0.68 0 0 Z " fill="#373534" transform="translate(204,286)"/>
<path d="M0 0 C0.66 0.99 1.32 1.98 2 3 C0.35 6.3 -1.3 9.6 -3 13 C-4.00573177 8.97707292 -4.07668895 8.3618129 -2.625 4.8125 C-2.34914062 4.11769531 -2.07328125 3.42289063 -1.7890625 2.70703125 C-1 1 -1 1 0 0 Z " fill="#442E1B" transform="translate(173,165)"/>
<path d="M0 0 C2.64 0 5.28 0 8 0 C7.67 1.32 7.34 2.64 7 4 C6.34 4 5.68 4 5 4 C5 3.34 5 2.68 5 2 C4.01 2 3.02 2 2 2 C1.67 3.65 1.34 5.3 1 7 C0.67 7 0.34 7 0 7 C0 4.69 0 2.38 0 0 Z " fill="#4F4D4C" transform="translate(244,243)"/>
<path d="M0 0 C-0.75 1.9375 -0.75 1.9375 -2 4 C-4 4.8125 -4 4.8125 -6 5 C-6.66 4.67 -7.32 4.34 -8 4 C-7.1875 2.0625 -7.1875 2.0625 -6 0 C-3 -1 -3 -1 0 0 Z " fill="#7F5530" transform="translate(196,178)"/>
<path d="M0 0 C0.33 0.66 0.66 1.32 1 2 C1.66 2 2.32 2 3 2 C2.67 2.99 2.34 3.98 2 5 C1.67 4.67 1.34 4.34 1 4 C0.01 5.98 -0.98 7.96 -2 10 C-2.33 10 -2.66 10 -3 10 C-2.25 3.375 -2.25 3.375 0 0 Z " fill="#3D2818" transform="translate(188,160)"/>
<path d="M0 0 C1.65 1.65 3.3 3.3 5 5 C4.67 5.99 4.34 6.98 4 8 C2.68 7.67 1.36 7.34 0 7 C-0.93423645 3.98968256 -1.04449911 3.13349732 0 0 Z " fill="#40372F" transform="translate(184,250)"/>
<path d="M0 0 C1.32 0 2.64 0 4 0 C3.43628586 3.26954202 2.50037734 4.82575883 0 7 C-0.38133299 5.0085944 -0.71325582 3.00720923 -1 1 C-0.67 0.67 -0.34 0.34 0 0 Z " fill="#2C2520" transform="translate(98,254)"/>
<path d="M0 0 C0.33 0 0.66 0 1 0 C1.33 1.65 1.66 3.3 2 5 C2.66 5 3.32 5 4 5 C4.33 3.35 4.66 1.7 5 0 C6.0625 1.8125 6.0625 1.8125 7 4 C6.67 4.99 6.34 5.98 6 7 C4.02 7 2.04 7 0 7 C-1.33332095 4.3333581 -0.67102033 2.83319697 0 0 Z " fill="#4F504E" transform="translate(256,172)"/>
<path d="M0 0 C0.33 0.66 0.66 1.32 1 2 C-0.32 3.32 -1.64 4.64 -3 6 C-5.475 5.01 -5.475 5.01 -8 4 C-5.33333333 2.66666667 -2.66666667 1.33333333 0 0 Z " fill="#7C4F2A" transform="translate(181,172)"/>
<path d="M0 0 C0.66 0 1.32 0 2 0 C2.33 3.3 2.66 6.6 3 10 C2.01 10.33 1.02 10.66 0 11 C0 7.37 0 3.74 0 0 Z " fill="#241B1A" transform="translate(180,30)"/>
<path d="M0 0 C0.33 0.99 0.66 1.98 1 3 C-2.11826692 4.55913346 -4.67073874 3.66585225 -8 3 C-8.33 2.34 -8.66 1.68 -9 1 C-4.545 0.505 -4.545 0.505 0 0 Z " fill="#484342" transform="translate(147,301)"/>
<path d="M0 0 C2 1.375 2 1.375 4 3 C4 3.66 4 4.32 4 5 C5.98 5 7.96 5 10 5 C10 5.33 10 5.66 10 6 C3.6 6.49230769 3.6 6.49230769 0.5625 4 C0.046875 3.34 -0.46875 2.68 -1 2 C-0.67 1.34 -0.34 0.68 0 0 Z " fill="#1E1919" transform="translate(153,299)"/>
<path d="M0 0 C0.33 0 0.66 0 1 0 C1.25 7.625 1.25 7.625 -1 11 C-1.66 11 -2.32 11 -3 11 C-2.67 9.35 -2.34 7.7 -2 6 C-1.34 6 -0.68 6 0 6 C0 4.02 0 2.04 0 0 Z " fill="#493F3E" transform="translate(175,35)"/>
<path d="M0 0 C1.21816406 0.03480469 1.21816406 0.03480469 2.4609375 0.0703125 C3.68683594 0.09738281 3.68683594 0.09738281 4.9375 0.125 C5.87722656 0.15980469 5.87722656 0.15980469 6.8359375 0.1953125 C5.2734375 1.7578125 5.2734375 1.7578125 2.8359375 3.1953125 C-0.9140625 2.8828125 -0.9140625 2.8828125 -4.1640625 2.1953125 C-2.1640625 0.1953125 -2.1640625 0.1953125 0 0 Z " fill="#483930" transform="translate(190.1640625,227.8046875)"/>
<path d="M0 0 C-0.33 1.32 -0.66 2.64 -1 4 C-3.97 3.505 -3.97 3.505 -7 3 C-6.67 2.01 -6.34 1.02 -6 0 C-3 -1 -3 -1 0 0 Z " fill="#8B755D" transform="translate(222,136)"/>
<path d="M0 0 C1.98 0 3.96 0 6 0 C6 0.99 6 1.98 6 3 C3.69 3 1.38 3 -1 3 C-0.67 2.01 -0.34 1.02 0 0 Z " fill="#3D8F97" transform="translate(180,89)"/>
<path d="M0 0 C2.64 0 5.28 0 8 0 C8 0.99 8 1.98 8 3 C5.6568787 2.74438677 3.32156597 2.40729228 1 2 C0.67 1.34 0.34 0.68 0 0 Z " fill="#5B5A59" transform="translate(177,74)"/>
<path d="M0 0 C1.98 0 3.96 0 6 0 C5.67 1.32 5.34 2.64 5 4 C3.35 3.67 1.7 3.34 0 3 C0 2.01 0 1.02 0 0 Z " fill="#3E3B38" transform="translate(193,294)"/>
<path d="M0 0 C0.66 0 1.32 0 2 0 C2.25 2.25 2.25 2.25 2 5 C0 7.3125 0 7.3125 -2 9 C-2 5.61976483 -1.12544378 3.16531063 0 0 Z " fill="#4B4541" transform="translate(229,243)"/>
<path d="M0 0 C1.9453125 -0.29296875 1.9453125 -0.29296875 4.125 -0.1875 C5.40375 -0.125625 6.6825 -0.06375 8 0 C6.75 1.5 6.75 1.5 5 3 C2.66666667 3 0.33333333 3 -2 3 C-1.34 2.01 -0.68 1.02 0 0 Z " fill="#3F3938" transform="translate(134,243)"/>
<path d="M0 0 C0.33 0 0.66 0 1 0 C1 1.98 1 3.96 1 6 C2.65 6 4.3 6 6 6 C6 6.33 6 6.66 6 7 C3.36 7.33 0.72 7.66 -2 8 C-2.33 7.34 -2.66 6.68 -3 6 C-2.01 6 -1.02 6 0 6 C0 4.02 0 2.04 0 0 Z " fill="#483D3D" transform="translate(224,296)"/>
<path d="M0 0 C1.98 0 3.96 0 6 0 C6 1.32 6 2.64 6 4 C3.03 3.505 3.03 3.505 0 3 C0 2.01 0 1.02 0 0 Z " fill="#4C4848" transform="translate(178,294)"/>
<path d="M0 0 C0.66 1.32 1.32 2.64 2 4 C1.38125 4.28875 0.7625 4.5775 0.125 4.875 C-2.13325765 5.93720042 -2.13325765 5.93720042 -4 8 C-3.40072174 4.64404172 -2.15377564 2.62198774 0 0 Z " fill="#46413C" transform="translate(100,249)"/>
<path d="M0 0 C1.65 0 3.3 0 5 0 C4.67 1.65 4.34 3.3 4 5 C3.01 4.67 2.02 4.34 1 4 C0.3125 1.9375 0.3125 1.9375 0 0 Z " fill="#2D231B" transform="translate(185,249)"/>
<path d="M0 0 C0.33 0 0.66 0 1 0 C1 3.3 1 6.6 1 10 C0.01 10.495 0.01 10.495 -1 11 C-2.60080151 6.99799622 -1.29279692 3.95443764 0 0 Z " fill="#4D3A2C" transform="translate(223,129)"/>
<path d="M0 0 C3.375 -0.125 3.375 -0.125 7 0 C7.66 0.66 8.32 1.32 9 2 C6.08517222 2.80967438 4.53886783 3.21845993 1.6875 2.0625 C1.130625 1.711875 0.57375 1.36125 0 1 C0 0.67 0 0.34 0 0 Z " fill="#4EBCAF" transform="translate(152,89)"/>
<path d="M0 0 C1.32 0.33 2.64 0.66 4 1 C4 2.98 4 4.96 4 7 C3.34 6.01 2.68 5.02 2 4 C1.01 4.495 1.01 4.495 0 5 C0 3.35 0 1.7 0 0 Z " fill="#4A413F" transform="translate(133,291)"/>
<path d="M0 0 C1.0625 1.875 1.0625 1.875 2 4 C1.67 4.66 1.34 5.32 1 6 C0.34 5.67 -0.32 5.34 -1 5 C-1.99 5.33 -2.98 5.66 -4 6 C-3.0022242 3.00667261 -2.2477975 2.05233685 0 0 Z " fill="#3E352C" transform="translate(264,253)"/>
<path d="M0 0 C0.99 0.33 1.98 0.66 3 1 C3 2.98 3 4.96 3 7 C2.01 7.33 1.02 7.66 0 8 C0 5.36 0 2.72 0 0 Z " fill="#3A3030" transform="translate(172,34)"/>
</svg>
